<?xml version="1.0" encoding="UTF-8" standalone="no"?>
<svg width="180px" height="299px" viewBox="0 0 180 299" version="1.1" xmlns="http://www.w3.org/2000/svg" xmlns:xlink="http://www.w3.org/1999/xlink">
    <!-- Generator: Sketch 46.2 (44496) - http://www.bohemiancoding.com/sketch -->
    <title>InternationalAlert_Logo_EN_VerticalBlack_CMYK</title>
    <desc>Created with Sketch.</desc>
    <defs>
        <polygon id="path-1" points="179.669 11.94 0.009 11.94 0.009 0.36 179.669 0.36"></polygon>
        <polygon id="path-3" points="0.000137335644 0.675 179.678 0.675 179.678 180.278088 0.000137335644 180.278088"></polygon>
    </defs>
    <g id="Page-1" stroke="none" stroke-width="1" fill="none" fill-rule="evenodd">
        <g id="InternationalAlert_Logo_EN_VerticalBlack_CMYK">
            <g id="Group-3" transform="translate(0.000000, 287.000000)">
                <mask id="mask-2" fill="white">
                    <use xlink:href="#path-1"></use>
                </mask>
                <g id="Clip-2"></g>
                <path d="M179.1,12 L0.578,12 C0.264,12 0.009,11.745 0.009,11.431 L0.009,0.928 C0.009,0.613 0.264,0.36 0.578,0.36 L179.1,0.36 C179.415,0.36 179.669,0.613 179.669,0.928 L179.669,11.431 C179.669,11.745 179.415,12 179.1,12" id="Fill-1" fill="#000105" mask="url(#mask-2)"></path>
            </g>
            <path d="M33.221,257.745 C33.221,250.176 28.255,246.268 22.557,246.268 C16.696,246.268 11.324,250.257 11.324,257.745 C11.324,265.479 16.696,269.467 22.557,269.467 C28.255,269.467 33.221,265.56 33.221,257.745 Z M44.291,237.233 L44.291,278.422 C44.291,278.737 44.036,278.991 43.722,278.991 L33.22,278.991 C32.906,278.991 32.651,278.737 32.651,278.422 L32.651,275.703 C32.651,275.241 32.076,275.043 31.783,275.4 C30.189,277.341 26.466,279.805 20.929,279.805 C11.243,279.805 0.009,272.805 0.009,257.745 C0.009,243.175 11.243,235.931 20.929,235.931 C26.498,235.931 30.232,238.565 31.81,240.221 C32.116,240.541 32.651,240.328 32.651,239.887 L32.651,237.233 C32.651,236.918 32.906,236.664 33.22,236.664 L43.722,236.664 C44.036,236.664 44.291,236.918 44.291,237.233 L44.291,237.233 Z" id="Fill-4" fill="#000105"></path>
            <path d="M63.731,278.991 L53.229,278.991 C52.915,278.991 52.66,278.737 52.66,278.422 L52.66,227.301 C52.66,226.987 52.915,226.733 53.229,226.733 L63.731,226.733 C64.046,226.733 64.3,226.987 64.3,227.301 L64.3,278.422 C64.3,278.737 64.046,278.991 63.731,278.991" id="Fill-5" fill="#000105"></path>
            <path d="M83.24,253.676 L102.917,253.676 C101.614,248.467 96.974,245.862 92.823,245.862 C88.774,245.862 84.502,248.245 82.785,253.011 C82.669,253.334 82.896,253.676 83.24,253.676 Z M112.668,261.897 L83.063,261.897 C82.735,261.897 82.492,262.217 82.596,262.528 C84.227,267.408 88.495,269.955 93.962,269.955 C99.033,269.955 101.114,268.835 103.929,267.308 C104.148,267.189 104.421,267.225 104.6,267.399 L110.319,272.973 C110.545,273.195 110.553,273.561 110.328,273.783 C106.688,277.385 101.559,279.805 93.555,279.805 C82.974,279.805 70.601,272.561 70.601,257.989 C70.601,243.175 83.218,235.931 92.823,235.931 C102.341,235.931 115.458,243.045 113.237,261.394 C113.203,261.68 112.957,261.897 112.668,261.897 L112.668,261.897 Z" id="Fill-6" fill="#000105"></path>
            <path d="M149.07,236.724 L149.07,246.719 C149.07,247.068 148.758,247.33 148.414,247.278 C147.663,247.164 146.934,247.164 146.302,247.164 C138.489,247.164 132.057,252.78 131.325,260.921 L131.325,278.422 C131.325,278.737 131.071,278.991 130.756,278.991 L120.254,278.991 C119.94,278.991 119.685,278.737 119.685,278.422 L119.685,237.233 C119.685,236.918 119.94,236.664 120.254,236.664 L130.756,236.664 C131.071,236.664 131.325,236.918 131.325,237.233 L131.325,244.55 C131.325,245.07 132.033,245.231 132.25,244.758 C134.615,239.615 139.35,236.012 145.977,236.012 C146.88,236.012 147.724,236.012 148.611,236.164 C148.878,236.21 149.07,236.452 149.07,236.724" id="Fill-7" fill="#000105"></path>
            <path d="M179.669,269.116 L179.669,277.721 C179.669,277.948 179.537,278.158 179.326,278.244 C177.532,278.979 174.859,279.48 171.041,279.48 C164.448,279.48 158.912,277.2 158.912,265.235 L158.912,246.756 C158.912,246.487 158.694,246.268 158.424,246.268 L153.539,246.268 C153.225,246.268 152.97,246.014 152.97,245.699 L152.97,237.233 C152.97,236.918 153.225,236.664 153.539,236.664 L158.424,236.664 C158.694,236.664 158.912,236.446 158.912,236.176 L158.912,227.301 C158.912,226.987 159.167,226.733 159.481,226.733 L169.984,226.733 C170.297,226.733 170.552,226.987 170.552,227.301 L170.552,236.176 C170.552,236.446 170.771,236.664 171.04,236.664 L179.1,236.664 C179.415,236.664 179.669,236.918 179.669,237.233 L179.669,245.699 C179.669,246.014 179.415,246.268 179.1,246.268 L171.04,246.268 C170.771,246.268 170.552,246.487 170.552,246.756 L170.552,265.154 C170.552,267.107 171.123,269.223 174.052,269.223 C175.947,269.223 177.418,269.042 178.935,268.574 C179.299,268.462 179.669,268.735 179.669,269.116" id="Fill-8" fill="#000105"></path>
            <path d="M5.526,218.363 L2.124,218.363 C1.944,218.363 1.799,218.218 1.799,218.039 L1.799,203.952 C1.799,203.773 1.944,203.627 2.124,203.627 L5.526,203.627 C5.706,203.627 5.851,203.773 5.851,203.952 L5.851,218.039 C5.851,218.218 5.706,218.363 5.526,218.363" id="Fill-9" fill="#000105"></path>
            <path d="M23.657,209.89 L23.657,218.039 C23.657,218.218 23.511,218.363 23.331,218.363 L19.929,218.363 C19.749,218.363 19.604,218.218 19.604,218.039 L19.604,210.173 C19.604,207.764 18.669,206.943 17.11,206.943 C14.956,206.943 13.681,208.983 13.369,210.004 L13.369,218.039 C13.369,218.218 13.224,218.363 13.044,218.363 L9.642,218.363 C9.462,218.363 9.316,218.218 9.316,218.039 L9.316,203.952 C9.316,203.773 9.462,203.627 9.642,203.627 L13.044,203.627 C13.224,203.627 13.369,203.773 13.369,203.952 L13.369,205.442 C13.369,205.68 13.67,205.775 13.811,205.582 C14.505,204.644 15.934,203.4 18.074,203.4 C20.879,203.4 23.657,205.242 23.657,209.89" id="Fill-10" fill="#000105"></path>
            <path d="M35.072,215.093 L35.072,217.834 C35.072,217.966 34.995,218.088 34.872,218.135 C34.248,218.373 33.341,218.533 32.067,218.533 C29.772,218.533 27.845,217.74 27.845,213.574 L27.845,207.214 C27.845,207.08 27.736,206.971 27.601,206.971 L26.101,206.971 C25.921,206.971 25.776,206.825 25.776,206.646 L25.776,203.952 C25.776,203.773 25.921,203.627 26.101,203.627 L27.601,203.627 C27.736,203.627 27.845,203.518 27.845,203.383 L27.845,200.494 C27.845,200.315 27.99,200.169 28.17,200.169 L31.572,200.169 C31.752,200.169 31.897,200.315 31.897,200.494 L31.897,203.383 C31.897,203.518 32.006,203.627 32.141,203.627 L34.718,203.627 C34.897,203.627 35.043,203.773 35.043,203.952 L35.043,206.646 C35.043,206.825 34.897,206.971 34.718,206.971 L32.141,206.971 C32.006,206.971 31.897,207.08 31.897,207.214 L31.897,213.546 C31.897,214.226 32.096,214.963 33.116,214.963 C33.713,214.963 34.188,214.911 34.665,214.781 C34.87,214.725 35.072,214.88 35.072,215.093" id="Fill-11" fill="#000105"></path>
            <path d="M41.445,209.55 L48.188,209.55 C47.734,207.737 46.119,206.828 44.673,206.828 C43.29,206.828 41.833,207.627 41.213,209.225 C41.153,209.381 41.278,209.55 41.445,209.55 Z M51.467,212.412 L41.382,212.412 C41.216,212.412 41.092,212.577 41.148,212.734 C41.741,214.366 43.205,215.218 45.07,215.218 C46.785,215.218 47.518,214.85 48.456,214.341 C48.581,214.274 48.739,214.293 48.841,214.393 L50.67,216.176 C50.801,216.303 50.805,216.517 50.673,216.643 C49.412,217.846 47.646,218.647 44.929,218.647 C41.245,218.647 36.936,216.125 36.936,211.052 C36.936,205.894 41.329,203.372 44.673,203.372 C47.967,203.372 52.498,205.819 51.794,212.12 C51.776,212.284 51.633,212.412 51.467,212.412 L51.467,212.412 Z" id="Fill-12" fill="#000105"></path>
            <path d="M64.87,203.756 L64.87,206.985 C64.87,207.177 64.703,207.326 64.511,207.306 C64.296,207.282 64.089,207.282 63.907,207.282 C61.186,207.282 58.947,209.238 58.691,212.072 L58.691,218.039 C58.691,218.218 58.546,218.363 58.367,218.363 L54.964,218.363 C54.785,218.363 54.639,218.218 54.639,218.039 L54.639,203.952 C54.639,203.773 54.785,203.627 54.964,203.627 L58.367,203.627 C58.546,203.627 58.691,203.773 58.691,203.952 L58.691,206.056 C58.691,206.315 59.033,206.391 59.153,206.162 C60.015,204.524 61.609,203.4 63.793,203.4 C64.071,203.4 64.333,203.4 64.603,203.437 C64.759,203.457 64.87,203.6 64.87,203.756" id="Fill-13" fill="#000105"></path>
            <path d="M81.486,209.89 L81.486,218.039 C81.486,218.218 81.341,218.363 81.161,218.363 L77.759,218.363 C77.58,218.363 77.434,218.218 77.434,218.039 L77.434,210.173 C77.434,207.764 76.498,206.943 74.94,206.943 C72.786,206.943 71.51,208.983 71.199,210.004 L71.199,218.039 C71.199,218.218 71.053,218.363 70.873,218.363 L67.471,218.363 C67.291,218.363 67.146,218.218 67.146,218.039 L67.146,203.952 C67.146,203.773 67.291,203.627 67.471,203.627 L70.873,203.627 C71.053,203.627 71.199,203.773 71.199,203.952 L71.199,205.442 C71.199,205.68 71.499,205.775 71.641,205.582 C72.334,204.644 73.763,203.4 75.903,203.4 C78.709,203.4 81.486,205.242 81.486,209.89" id="Fill-14" fill="#000105"></path>
            <path d="M95.753,210.967 C95.753,208.331 94.024,206.971 92.04,206.971 C89.999,206.971 88.128,208.36 88.128,210.967 C88.128,213.659 89.999,215.048 92.04,215.048 C94.024,215.048 95.753,213.688 95.753,210.967 Z M99.607,203.952 L99.607,218.039 C99.607,218.218 99.461,218.363 99.282,218.363 L95.879,218.363 C95.7,218.363 95.554,218.218 95.554,218.039 L95.554,217.413 C95.554,217.19 95.286,217.086 95.133,217.248 C94.524,217.898 93.274,218.647 91.473,218.647 C88.1,218.647 84.189,216.209 84.189,210.967 C84.189,205.894 88.1,203.372 91.473,203.372 C93.285,203.372 94.54,204.173 95.144,204.748 C95.3,204.897 95.554,204.786 95.554,204.571 L95.554,203.952 C95.554,203.773 95.7,203.627 95.879,203.627 L99.282,203.627 C99.461,203.627 99.607,203.773 99.607,203.952 L99.607,203.952 Z" id="Fill-15" fill="#000105"></path>
            <path d="M111.475,215.093 L111.475,217.834 C111.475,217.966 111.398,218.088 111.275,218.135 C110.652,218.373 109.744,218.533 108.471,218.533 C106.175,218.533 104.248,217.74 104.248,213.574 L104.248,207.214 C104.248,207.08 104.139,206.971 104.004,206.971 L102.504,206.971 C102.325,206.971 102.179,206.825 102.179,206.646 L102.179,203.952 C102.179,203.773 102.325,203.627 102.504,203.627 L104.004,203.627 C104.139,203.627 104.248,203.518 104.248,203.383 L104.248,200.494 C104.248,200.315 104.393,200.169 104.573,200.169 L107.975,200.169 C108.155,200.169 108.3,200.315 108.3,200.494 L108.3,203.383 C108.3,203.518 108.41,203.627 108.544,203.627 L111.122,203.627 C111.3,203.627 111.446,203.773 111.446,203.952 L111.446,206.646 C111.446,206.825 111.3,206.971 111.122,206.971 L108.544,206.971 C108.41,206.971 108.3,207.08 108.3,207.214 L108.3,213.546 C108.3,214.226 108.499,214.963 109.519,214.963 C110.116,214.963 110.591,214.911 111.068,214.781 C111.273,214.725 111.475,214.88 111.475,215.093" id="Fill-16" fill="#000105"></path>
            <path d="M118.221,218.363 L114.819,218.363 C114.639,218.363 114.494,218.218 114.494,218.039 L114.494,203.952 C114.494,203.773 114.639,203.627 114.819,203.627 L118.221,203.627 C118.401,203.627 118.546,203.773 118.546,203.952 L118.546,218.039 C118.546,218.218 118.401,218.363 118.221,218.363" id="Fill-17" fill="#000105"></path>
            <path d="M125.335,211.052 C125.335,213.659 127.292,215.048 129.133,215.048 C130.948,215.048 132.931,213.659 132.931,211.052 C132.931,208.36 130.948,206.971 129.133,206.971 C127.292,206.971 125.335,208.36 125.335,211.052 Z M136.842,211.052 C136.842,216.209 132.478,218.647 129.133,218.647 C125.79,218.647 121.396,216.209 121.396,211.052 C121.396,205.894 125.79,203.372 129.133,203.372 C132.478,203.372 136.842,205.894 136.842,211.052 L136.842,211.052 Z" id="Fill-18" fill="#000105"></path>
            <path d="M153.996,209.89 L153.996,218.039 C153.996,218.218 153.85,218.363 153.67,218.363 L150.268,218.363 C150.088,218.363 149.943,218.218 149.943,218.039 L149.943,210.173 C149.943,207.764 149.007,206.943 147.449,206.943 C145.295,206.943 144.019,208.983 143.708,210.004 L143.708,218.039 C143.708,218.218 143.562,218.363 143.382,218.363 L139.98,218.363 C139.8,218.363 139.655,218.218 139.655,218.039 L139.655,203.952 C139.655,203.773 139.8,203.627 139.98,203.627 L143.382,203.627 C143.562,203.627 143.708,203.773 143.708,203.952 L143.708,205.442 C143.708,205.68 144.008,205.775 144.15,205.582 C144.843,204.644 146.272,203.4 148.413,203.4 C151.218,203.4 153.996,205.242 153.996,209.89" id="Fill-19" fill="#000105"></path>
            <path d="M168.261,210.967 C168.261,208.331 166.532,206.971 164.548,206.971 C162.508,206.971 160.637,208.36 160.637,210.967 C160.637,213.659 162.508,215.048 164.548,215.048 C166.532,215.048 168.261,213.688 168.261,210.967 Z M172.115,203.952 L172.115,218.039 C172.115,218.218 171.969,218.363 171.791,218.363 L168.387,218.363 C168.208,218.363 168.063,218.218 168.063,218.039 L168.063,217.413 C168.063,217.19 167.793,217.086 167.641,217.248 C167.033,217.898 165.783,218.647 163.981,218.647 C160.609,218.647 156.698,216.209 156.698,210.967 C156.698,205.894 160.609,203.372 163.981,203.372 C165.793,203.372 167.048,204.173 167.653,204.748 C167.809,204.897 168.063,204.786 168.063,204.571 L168.063,203.952 C168.063,203.773 168.208,203.627 168.387,203.627 L171.791,203.627 C171.969,203.627 172.115,203.773 172.115,203.952 L172.115,203.952 Z" id="Fill-20" fill="#000105"></path>
            <path d="M179.354,218.363 L175.951,218.363 C175.772,218.363 175.626,218.218 175.626,218.039 L175.626,200.494 C175.626,200.315 175.772,200.169 175.951,200.169 L179.354,200.169 C179.533,200.169 179.678,200.315 179.678,200.494 L179.678,218.039 C179.678,218.218 179.533,218.363 179.354,218.363" id="Fill-21" fill="#000105"></path>
            <path d="M118.749,199.442 C118.749,200.672 117.75,201.67 116.52,201.67 C115.289,201.67 114.291,200.672 114.291,199.442 C114.291,198.21 115.289,197.212 116.52,197.212 C117.75,197.212 118.749,198.21 118.749,199.442" id="Fill-22" fill="#000105"></path>
            <path d="M6.054,199.442 C6.054,200.672 5.056,201.67 3.825,201.67 C2.594,201.67 1.596,200.672 1.596,199.442 C1.596,198.21 2.594,197.212 3.825,197.212 C5.056,197.212 6.054,198.21 6.054,199.442" id="Fill-23" fill="#000105"></path>
            <g id="Group-27">
                <mask id="mask-4" fill="white">
                    <use xlink:href="#path-3"></use>
                </mask>
                <g id="Clip-25"></g>
                <path d="M160.034,71.19 C158.877,71.065 157.724,71.014 156.617,71.086 C155.499,71.179 154.513,71.354 153.424,71.708 C151.289,72.359 149.312,73.47 147.372,74.751 C147.21,74.86 147.039,74.986 146.945,75.152 C146.771,75.472 146.499,75.666 146.248,75.902 C142.22,79.488 139.137,84.303 135.912,89.115 C135.021,90.444 134.034,91.726 133.026,93.013 C132.788,93.31 132.491,93.547 132.448,93.976 C132.431,94.144 132.278,94.318 132.14,94.446 C131.77,94.794 131.486,95.187 131.231,95.629 C131.137,95.793 131.007,95.999 130.849,96.055 C130.423,96.207 130.176,96.542 129.902,96.861 C129.458,97.403 128.992,97.953 128.482,98.458 C127.405,99.501 126.16,100.449 124.756,101.213 C124.498,101.37 124.199,101.475 124.01,101.741 C123.752,102.108 123.334,102.228 122.937,102.23 C122.556,102.238 122.208,102.303 121.841,102.405 C119.43,103.11 116.641,102.884 114.421,101.886 C114.025,101.7 113.649,101.427 113.173,101.643 C113.11,101.671 112.99,101.64 112.915,101.601 C112.417,101.366 111.941,101.107 111.583,100.735 C111.208,100.355 110.824,100.028 110.377,99.754 C109.97,99.485 109.607,99.175 109.226,98.879 C108.788,98.52 108.332,98.189 107.787,97.999 C107.611,97.934 107.448,97.802 107.304,97.672 L105.594,96.116 C105.063,95.571 104.54,95.02 104.038,94.45 C103.458,93.819 102.958,93.143 102.394,92.514 C101.836,91.881 101.25,91.273 100.651,90.678 C100.475,90.509 100.346,90.301 100.223,90.09 C100.138,89.945 99.906,89.776 99.897,89.602 C99.844,88.715 99.046,88.261 98.76,87.519 C98.653,87.251 98.493,87.007 98.258,86.84 C97.738,86.465 97.535,85.835 96.975,85.507 C96.848,85.432 96.747,85.276 96.688,85.133 C96.419,84.475 96,83.916 95.592,83.347 C95.115,82.696 94.66,82.033 94.222,81.359 C94.103,81.173 93.995,81.008 93.761,80.976 C93.569,80.95 93.393,80.864 93.285,80.707 C92.885,80.127 92.476,79.551 92.098,78.959 C92.012,78.826 91.915,78.673 91.906,78.522 C91.87,77.949 91.554,77.522 91.251,77.079 C91.039,76.77 90.861,76.438 90.646,76.131 C90.479,75.893 90.308,75.648 90.09,75.459 C89.878,75.273 89.745,75.066 89.664,74.801 C89.585,74.547 89.499,74.287 89.361,74.064 C88.837,73.224 88.308,72.388 87.766,71.563 C86.744,70.029 85.71,68.505 84.825,66.888 C84.321,65.979 83.756,65.105 83.207,64.223 C83.069,64.001 82.897,63.771 82.68,63.633 C82.297,63.39 82.076,63.039 81.854,62.673 C80.526,60.468 79.606,58.638 78.289,56.421 C77.261,54.692 75.84,52.587 74.823,50.859 C74.581,50.448 74.386,50.008 74.141,49.6 C73.708,48.904 73.272,48.202 72.84,47.507 C72.274,46.549 71.748,45.57 71.173,44.623 C70.641,43.74 70.057,42.893 69.515,42.023 C68.987,41.174 68.5,40.303 67.96,39.467 C67.173,38.265 66.342,37.099 65.514,35.946 C64.591,34.671 63.655,33.42 62.661,32.267 C62.48,32.058 62.315,31.861 62.376,31.527 C62.406,31.368 62.329,31.162 62.228,31.037 C61.643,30.322 61.011,29.663 60.343,29.102 C60.238,29.014 60.097,28.934 59.962,28.931 C59.615,28.94 59.4,28.77 59.173,28.591 C58.928,28.445 58.66,28.293 58.358,28.369 C58.122,28.403 57.904,28.355 57.723,28.326 C57.097,28.194 56.674,28.045 55.979,28.08 C55.958,28.08 55.945,28.108 55.945,28.138 C55.948,28.405 55.94,28.491 55.945,28.506 C55.947,28.512 55.95,28.51 55.956,28.503 C55.951,28.493 55.953,28.509 55.947,28.507 L55.945,28.506 L55.92,28.504 C55.905,28.499 55.884,28.483 55.825,28.579 C55.674,28.765 55.707,29.11 55.718,29.444 C55.719,29.691 55.804,29.956 55.818,30.222 C55.852,30.88 55.914,31.576 55.999,32.281 C56.022,32.449 56.077,32.672 55.985,32.784 C55.707,33.128 55.865,33.426 56.045,33.694 C56.394,34.204 56.451,34.763 56.495,35.355 C56.522,35.757 56.562,36.184 56.729,36.547 C56.97,37.067 57.123,37.604 57.274,38.15 C58.256,41.715 59.367,45.305 60.757,48.797 C61.116,49.699 61.627,50.539 62.004,51.433 C62.582,52.797 63.181,54.153 63.796,55.503 C64.967,58.056 66.215,60.577 67.513,63.073 C67.622,63.283 67.772,63.489 67.81,63.715 C67.93,64.39 68.312,64.918 68.699,65.452 C68.898,65.726 69.095,66.024 69.192,66.344 C69.426,67.106 69.868,67.764 70.195,68.478 C70.252,68.6 70.337,68.706 70.447,68.786 C70.716,68.98 70.838,69.271 71.001,69.537 C71.903,70.995 72.613,72.552 73.376,74.086 C73.527,74.395 73.676,74.687 74.009,74.864 C74.16,74.944 74.257,75.131 74.352,75.285 L75.464,77.1 C76.658,79.033 77.887,80.946 79.137,82.845 L80.175,84.412 C80.438,84.805 80.554,85.209 80.819,85.601 C81.005,85.877 81.333,86.145 81.516,86.423 C82.207,87.483 82.904,88.549 83.601,89.618 C84.535,91.049 85.401,92.524 86.187,94.049 C86.655,94.944 87.119,95.85 87.404,96.83 C87.498,97.157 87.546,97.51 87.548,97.855 C87.549,98.008 87.487,98.125 87.396,98.208 C87.387,98.218 87.379,98.229 87.37,98.238 C87.365,98.242 87.361,98.245 87.356,98.249 C87.278,98.325 87.175,98.376 87.05,98.379 C86.8,98.383 86.54,98.364 86.324,98.281 C85.862,98.104 85.403,97.907 84.979,97.663 C83.391,96.781 82.017,95.613 80.701,94.392 C79.918,93.664 79.177,92.894 78.463,92.1 C76.002,89.333 73.466,86.627 71.378,83.577 C71.292,83.449 71.2,83.309 71.065,83.237 C70.81,83.101 70.649,82.887 70.481,82.675 C67.857,79.363 65.323,75.992 62.872,72.572 C62.197,71.632 61.601,70.638 60.987,69.658 C60.845,69.431 60.767,69.17 60.459,69.068 C60.339,69.028 60.262,68.884 60.208,68.764 C60.064,68.442 59.867,68.163 59.607,67.923 C59.511,67.834 59.395,67.713 59.4,67.588 C59.418,67.247 59.229,67.03 59.06,66.8 C58.775,66.413 58.46,66.047 58.189,65.65 C57.642,64.82 57.087,63.981 56.538,63.147 C56.433,62.988 56.344,62.81 56.127,62.75 C55.831,62.667 55.739,62.423 55.701,62.167 C55.665,61.923 55.574,61.72 55.442,61.528 L52.829,57.733 C52.668,57.501 52.56,57.211 52.151,57.238 C52.097,57.241 52.036,57.19 52.008,57.144 C51.826,56.852 51.597,56.58 51.493,56.253 C51.385,55.913 51.244,55.605 51.038,55.326 C50.845,55.064 50.658,54.797 50.475,54.527 C50.26,54.209 50.038,53.901 49.673,53.71 C49.553,53.648 49.462,53.538 49.385,53.43 C48.776,52.572 48.134,51.737 47.572,50.851 C46.941,49.854 46.294,48.874 45.444,48.04 C45.321,47.921 45.241,47.769 45.166,47.615 C45.115,47.508 44.946,47.393 44.958,47.26 C45.024,46.573 44.413,46.286 44.236,45.745 C44.17,45.549 44.056,45.377 43.878,45.271 C43.48,45.035 43.368,44.563 42.925,44.381 C42.825,44.339 42.749,44.232 42.708,44.13 C42.52,43.658 42.197,43.289 41.886,42.91 C41.525,42.477 41.167,42.047 40.804,41.61 C40.706,41.49 40.618,41.384 40.43,41.402 C40.275,41.418 40.133,41.386 40.046,41.287 L39.063,40.21 C38.989,40.131 38.906,40.039 38.892,39.928 C38.837,39.507 38.565,39.255 38.298,39.006 C38.11,38.831 37.953,38.619 37.758,38.456 C37.609,38.326 37.451,38.196 37.266,38.119 C37.086,38.041 36.961,37.938 36.871,37.77 C36.783,37.61 36.687,37.447 36.556,37.328 C36.054,36.902 35.541,36.486 35,36.166 C33.996,35.544 32.966,35.152 32.125,35.024 C31.643,34.948 31.219,35.06 30.816,35.281 C30.717,35.349 30.612,35.432 30.581,35.569 C30.54,35.84 30.384,35.936 30.252,36.088 C30.279,36.052 30.246,36.079 30.239,36.078 C30.241,36.056 30.213,36.231 30.224,36.377 C30.22,36.521 30.229,36.687 30.245,36.86 C30.3,37.548 30.439,38.317 30.665,39.158 C31.022,40.483 31.722,42.124 32.215,43.449 C32.333,43.765 32.405,44.098 32.528,44.413 C32.754,44.947 32.985,45.491 33.212,46.025 C33.504,46.761 33.769,47.511 34.081,48.242 C34.368,48.923 34.711,49.58 35.008,50.256 C35.304,50.913 35.553,51.592 35.858,52.246 C36.296,53.193 36.776,54.121 37.237,55.059 L38.775,58.184 C38.868,58.372 38.958,58.547 38.813,58.8 C38.746,58.918 38.75,59.09 38.798,59.203 C39.069,59.855 39.365,60.496 39.667,61.134 C39.714,61.234 39.792,61.339 39.898,61.386 C40.165,61.506 40.26,61.73 40.358,61.958 C40.465,62.205 40.609,62.415 40.858,62.575 C41.053,62.699 41.194,62.897 41.307,63.091 C41.686,63.751 41.919,64.476 42.098,65.226 C42.103,65.249 42.126,65.265 42.155,65.266 C42.481,65.281 42.499,65.281 42.584,65.452 C42.769,65.825 43.017,66.16 43.106,66.591 C43.166,66.884 43.382,67.129 43.546,67.383 C43.669,67.574 43.844,67.733 43.959,67.926 C44.244,68.399 44.507,68.884 44.776,69.365 C44.84,69.479 44.945,69.623 44.9,69.735 C44.763,70.074 44.962,70.236 45.174,70.373 C45.577,70.634 45.752,71.023 45.906,71.441 C46.012,71.725 46.123,72.025 46.329,72.241 C46.624,72.552 46.846,72.902 47.06,73.263 C48.457,75.611 49.781,78.007 51.265,80.303 C51.65,80.895 52.142,81.416 52.534,82.002 L54.332,84.68 C55.482,86.36 56.673,88.009 57.882,89.643 C57.984,89.78 58.12,89.905 58.164,90.069 C58.294,90.56 58.643,90.881 58.99,91.209 C59.168,91.378 59.345,91.566 59.442,91.789 C59.673,92.322 60.075,92.731 60.377,93.211 C60.429,93.293 60.504,93.357 60.598,93.396 C60.829,93.49 60.946,93.685 61.094,93.855 C61.905,94.786 62.563,95.829 63.266,96.842 C63.407,97.046 63.54,97.241 63.82,97.309 C63.947,97.339 64.034,97.463 64.122,97.56 L65.121,98.715 C66.197,99.938 67.294,101.141 68.418,102.312 L69.353,103.273 C69.587,103.515 69.711,103.795 69.952,104.03 C70.12,104.198 70.4,104.325 70.565,104.494 C71.204,105.134 71.83,105.788 72.477,106.417 C73.336,107.273 74.164,108.155 74.947,109.098 C75.069,109.237 75.184,109.385 75.303,109.528 C75.314,109.541 75.326,109.553 75.337,109.566 C75.345,109.575 75.352,109.587 75.36,109.596 C75.569,109.851 75.761,110.12 75.947,110.399 C76.045,110.538 76.153,110.668 76.248,110.81 C76.376,111.003 76.46,111.244 76.518,111.486 C76.541,111.585 76.533,111.679 76.511,111.768 C76.505,111.804 76.489,111.835 76.475,111.867 C76.463,111.892 76.456,111.918 76.441,111.941 C76.423,111.967 76.398,111.986 76.374,112.008 C76.299,112.085 76.207,112.145 76.089,112.161 C75.771,112.203 75.445,112.201 75.142,112.149 C74.229,111.998 73.409,111.625 72.587,111.257 C71.204,110.62 69.873,109.875 68.62,109.021 C67.685,108.386 66.755,107.743 65.847,107.071 C65.608,106.897 65.398,106.579 65.165,106.398 C64.833,106.141 64.474,106.024 64.143,105.765 L62.832,104.728 C61.251,103.471 59.704,102.169 58.162,100.861 L56.731,99.618 C56.611,99.51 56.46,99.397 56.422,99.244 C56.337,98.905 56.101,98.734 55.857,98.549 C54.632,97.642 53.396,96.737 52.323,95.644 C52.129,95.443 51.903,95.274 51.808,94.983 C51.769,94.864 51.699,94.765 51.605,94.69 C51.058,94.25 50.596,93.715 49.991,93.333 C49.735,93.173 49.532,92.925 49.352,92.68 C48.999,92.205 48.666,91.726 48.106,91.451 C47.918,91.36 47.79,91.169 47.643,91.015 C45.895,89.19 44.233,87.319 42.578,85.445 L39.982,82.467 C39.418,81.816 38.977,81.062 38.417,80.41 C36.249,77.89 33.987,75.466 31.794,73.042 C31.458,72.669 31.137,72.293 30.879,71.853 C30.7,71.547 30.401,71.31 30.112,71.096 C29.687,70.783 29.304,70.455 29.136,69.915 C29.047,69.633 28.923,69.355 28.497,69.403 C28.356,69.42 28.226,69.256 28.117,69.149 C27.652,68.707 27.189,68.268 26.723,67.825 C26.535,67.646 26.402,67.407 26.22,67.219 C25.973,66.979 25.748,66.68 25.433,66.549 C24.969,66.367 24.645,66.038 24.268,65.772 C24.093,65.659 24.098,65.639 24.135,65.264 C24.139,65.232 24.124,65.204 24.099,65.195 C23.29,64.9 22.536,64.656 21.876,64.291 C21.682,64.202 21.488,64.077 21.357,63.874 C21.189,63.622 20.969,63.537 20.724,63.477 C20.498,63.443 20.299,63.448 20.125,63.189 C20.054,63.079 19.946,63.069 19.849,63.065 C19.226,63.035 18.676,63.19 18.179,63.484 C18.092,63.535 18.015,63.663 18.026,63.801 C18.055,64.117 17.936,64.207 17.804,64.287 C17.731,64.33 17.743,64.322 17.743,64.322 L17.739,64.326 L17.737,64.338 L17.792,64.58 C17.854,64.852 17.936,65.148 18.025,65.447 C18.352,66.532 18.76,67.681 19.237,68.799 C19.572,69.575 19.98,70.323 20.348,71.092 C20.73,71.881 21.07,72.694 21.479,73.475 C21.916,74.318 22.416,75.128 22.88,75.959 C23.21,76.576 23.545,77.201 23.876,77.819 C24.078,78.173 24.336,78.495 24.543,78.847 C25.417,80.321 26.428,82.248 27.371,83.689 C28.579,85.531 29.702,86.886 30.981,88.677 C31.195,88.974 31.395,89.266 31.43,89.671 C31.45,89.901 31.574,90.114 31.704,90.297 C32.216,91.026 32.731,91.755 33.307,92.435 C34.333,93.635 35.246,94.918 36.199,96.176 C36.715,96.846 37.253,97.5 37.811,98.135 C37.958,98.304 38.158,98.433 38.354,98.553 C38.559,98.678 38.696,98.836 38.786,99.064 C38.877,99.297 39.033,99.501 39.188,99.694 C39.387,99.944 39.623,100.163 39.831,100.406 C40.127,100.755 40.405,101.114 40.905,101.235 C41.038,101.266 41.144,101.377 41.235,101.476 L42.439,102.803 C42.549,102.922 42.573,103.096 42.54,103.278 C42.499,103.499 42.617,103.619 42.748,103.753 C43.226,104.249 43.698,104.74 44.172,105.234 C44.584,105.661 44.99,106.095 45.519,106.395 C45.634,106.461 45.753,106.564 45.79,106.689 C45.957,107.236 46.497,107.446 46.727,107.95 C46.831,108.176 47.023,108.334 47.247,108.441 C47.858,108.736 48.129,109.495 48.948,109.517 C49.106,109.522 49.222,109.737 49.341,109.814 C49.514,109.924 49.682,110.041 49.811,110.2 C50.698,111.314 51.782,112.207 52.898,113.063 C53.888,113.827 54.815,114.669 55.783,115.459 C55.905,115.559 56.028,115.676 56.093,115.822 C56.289,116.272 56.642,116.555 57.006,116.831 C57.313,117.067 57.617,117.307 57.916,117.553 C58.237,117.81 58.595,117.994 58.991,118.14 C59.372,118.282 59.683,118.566 60.025,118.788 C60.078,118.823 60.137,118.896 60.131,118.96 C60.087,119.44 60.429,119.58 60.697,119.777 C62.177,120.839 63.675,121.876 65.203,122.863 C65.318,122.939 65.436,123.003 65.561,123.051 C65.69,123.103 65.963,123.218 66.184,123.282 C66.677,123.431 67.233,123.689 67.448,124.097 C67.6,124.391 67.96,124.576 68.297,124.781 L70.192,125.869 L70.84,126.478 C70.937,126.575 71.081,126.692 71.138,126.775 L71.218,126.987 C71.323,127.271 71.421,127.555 71.512,127.841 C71.539,127.947 71.584,128.027 71.584,128.155 C71.55,128.247 71.507,128.332 71.453,128.424 C71.409,128.512 71.339,128.606 71.265,128.702 C71.184,128.798 71.149,128.887 71.026,128.989 C70.902,129.109 70.768,129.223 70.682,129.352 C70.59,129.481 70.391,129.597 70.373,129.778 C70.337,129.904 70.06,130.027 69.782,130.091 C68.936,130.228 68.319,130.449 67.596,130.679 C67.338,130.769 66.987,130.874 66.702,130.849 C65.975,130.796 65.546,130.955 64.986,131.078 L63.546,131.376 C63.186,131.442 62.828,131.525 62.464,131.574 C61.739,131.692 61.008,131.785 60.272,131.824 C57.598,131.994 54.878,131.842 52.193,131.349 C49.563,130.845 47.137,130.206 44.652,129.541 C44.337,129.456 44.022,129.381 43.749,129.165 C43.605,129.051 43.407,129.014 43.226,128.978 C38.871,128.132 34.707,126.561 30.616,125.865 C29.446,125.675 28.303,125.512 27.243,125.452 C26.35,125.396 25.527,125.435 24.833,125.583 C24.139,125.735 23.532,125.971 22.882,126.486 C22.704,126.62 22.545,126.792 22.35,126.947 C22.179,127.123 21.999,127.309 21.81,127.504 C21.663,127.681 21.444,127.836 21.212,127.981 C21.498,128.003 21.773,128.047 22.013,128.123 C22.748,128.389 23.523,128.698 24.239,129.046 C24.823,129.35 25.517,129.589 26.124,129.896 C26.779,130.214 27.396,130.514 28.001,130.808 C28.927,131.284 29.861,131.748 30.818,132.198 C31.065,132.319 31.31,132.578 31.556,132.702 C31.908,132.877 32.252,132.924 32.608,133.092 L34.023,133.765 C35.721,134.595 37.466,135.363 39.199,136.145 L40.837,136.854 C40.976,136.916 41.143,136.974 41.221,137.103 C41.394,137.387 41.657,137.473 41.931,137.563 C43.299,138.006 44.69,138.392 45.995,139.007 C46.232,139.119 46.491,139.182 46.674,139.405 C46.748,139.497 46.845,139.559 46.954,139.592 C47.589,139.779 48.179,140.091 48.847,140.19 C49.128,140.232 49.394,140.372 49.64,140.518 C50.12,140.803 50.593,141.083 51.182,141.088 C51.379,141.09 51.562,141.202 51.748,141.274 C53.956,142.137 56.176,142.977 58.406,143.788 L61.946,145.052 C62.721,145.323 63.446,145.736 64.222,146.006 C67.237,147.05 70.281,147.827 73.352,148.934 C73.819,149.097 74.278,149.272 74.71,149.537 C75.009,149.722 75.38,149.788 75.733,149.849 C76.251,149.939 76.745,150.056 77.137,150.457 C77.342,150.667 77.575,150.859 77.931,150.641 C78.048,150.569 78.233,150.657 78.375,150.706 C78.977,150.911 79.579,151.118 80.172,151.346 C80.415,151.438 80.631,151.608 80.873,151.703 C81.196,151.833 81.52,152.021 81.863,152.028 C82.368,152.038 82.8,152.245 83.26,152.377 C83.47,152.438 83.474,152.458 83.564,152.82 C83.572,152.851 83.596,152.874 83.623,152.875 C84.509,152.907 85.376,152.996 86.205,153.271 C86.449,153.351 86.704,153.466 86.89,153.655 C87.128,153.903 87.402,153.997 87.705,154.053 C87.986,154.103 88.26,154.148 88.463,154.415 C88.543,154.519 88.681,154.58 88.805,154.607 C89.596,154.779 90.385,154.962 91.188,155.058 C91.328,155.078 91.519,155.033 91.63,154.926 C91.869,154.696 92.087,154.743 92.321,154.793 C93.612,155.097 94.915,155.295 96.215,155.514 C97.382,155.745 98.555,155.878 99.731,156.019 C100.137,156.063 100.545,156.098 100.954,156.125 C101.362,156.131 101.769,156.136 102.176,156.156 C103.011,156.192 103.845,156.305 104.681,156.321 C105.577,156.287 106.479,156.252 107.374,156.218 C108.038,156.225 108.696,156.197 109.355,156.142 C109.737,156.11 110.114,156.02 110.495,155.985 C110.895,155.956 111.322,155.926 111.765,155.894 C112.201,155.836 112.651,155.777 113.102,155.717 C114.001,155.592 114.915,155.509 115.698,155.33 C116.694,155.07 117.579,154.8 118.46,154.532 C118.906,154.413 119.337,154.252 119.776,154.069 C120.217,153.896 120.671,153.723 121.155,153.552 C121.475,153.438 121.789,153.335 122.167,153.414 C122.381,153.458 122.609,153.407 122.808,153.34 C123.574,153.013 124.343,152.681 125.081,152.292 C126.412,151.652 127.698,150.935 129.008,150.244 C129.713,149.877 130.404,149.482 131.034,148.988 C131.205,148.863 131.342,148.684 131.47,148.508 C131.604,148.324 131.765,148.211 131.988,148.15 C132.215,148.088 132.421,147.961 132.618,147.834 C132.871,147.671 133.097,147.47 133.347,147.302 C133.711,147.072 134.068,146.832 134.192,146.35 C134.227,146.224 134.335,146.13 134.431,146.049 L135.729,144.987 C135.846,144.891 136.014,144.879 136.188,144.921 C136.398,144.969 136.524,144.872 136.648,144.747 C137.099,144.288 137.566,143.847 138.032,143.404 C138.428,143.013 138.867,142.66 139.113,142.137 C139.167,142.024 139.258,141.908 139.374,141.869 C139.88,141.695 140.047,141.173 140.515,140.939 C140.725,140.833 140.868,140.647 140.958,140.433 C141.221,139.866 141.87,139.518 141.822,138.752 C141.809,138.603 142,138.477 142.06,138.359 C142.147,138.187 142.239,138.02 142.378,137.889 C142.881,137.445 143.277,136.918 143.637,136.368 C144.003,135.821 144.339,135.256 144.672,134.689 C145.196,133.637 145.837,132.654 146.396,131.62 C146.461,131.488 146.543,131.351 146.666,131.262 C147.037,130.992 147.229,130.609 147.414,130.22 C147.571,129.89 147.734,129.562 147.904,129.238 C148.073,128.887 148.151,128.51 148.192,128.112 C148.23,127.727 148.418,127.377 148.549,127.015 C148.57,126.959 148.625,126.888 148.686,126.879 C149.144,126.809 149.203,126.467 149.317,126.172 C149.907,124.541 150.5,122.913 150.976,121.238 C151.053,120.987 151.082,120.737 151.037,120.464 C150.992,120.179 151.003,119.887 151.281,119.686 C151.487,119.539 151.511,119.315 151.561,119.105 C151.815,118 152.085,116.904 152.297,115.787 C152.409,115.254 152.579,114.734 152.709,114.204 C152.786,113.888 152.894,113.58 152.712,113.231 C152.648,113.104 152.71,112.925 152.768,112.787 C152.922,112.417 152.994,112.035 152.99,111.634 C152.989,111.486 153,111.301 153.104,111.203 C153.373,110.95 153.329,110.644 153.368,110.342 C153.501,109.03 153.609,107.718 153.794,106.416 C154.127,104.03 154.387,101.682 154.682,99.237 C154.968,96.732 155.447,94.242 156.061,91.777 C156.135,91.461 156.23,91.15 156.441,90.877 C156.554,90.734 156.594,90.537 156.633,90.356 C157.569,86.007 159.641,81.889 162.436,78.22 C162.865,77.706 163.267,77.174 163.743,76.696 C164.233,76.229 164.705,75.748 165.232,75.321 C166.485,74.284 167.945,73.429 169.5,72.919 C167.671,72.564 165.867,72.171 164.077,71.826 C162.717,71.58 161.369,71.358 160.034,71.19" id="Fill-24" fill="#000105" mask="url(#mask-4)"></path>
                <path d="M174.23,73.106 C174.254,73.246 174.221,73.401 174.125,73.542 C173.988,73.741 173.833,73.927 173.662,74.055 C173.3,74.341 172.933,74.555 172.59,74.841 C172.083,75.229 171.562,75.521 171.09,75.923 C170.849,76.107 170.606,76.282 170.362,76.451 C170.127,76.652 169.899,76.847 169.672,77.041 C168.04,78.428 166.568,80.024 165.272,81.826 C161.96,86.493 160.056,92.319 159.175,98.231 C158.933,99.98 158.72,101.878 158.505,103.758 C158.254,105.636 158.02,107.514 157.706,109.391 C157.092,113.142 156.378,116.898 155.333,120.6 C155.208,121.115 154.978,121.602 154.822,122.11 C154.676,122.582 154.599,123.075 154.454,123.548 C153.261,127.265 151.767,130.916 149.885,134.39 C148.026,137.877 145.675,141.119 143.013,144.057 C142.516,144.583 142.03,145.105 141.493,145.589 C141.01,146.05 140.562,146.565 140.078,147.027 C139.201,147.918 138.199,148.658 137.248,149.459 C136.812,149.805 136.38,150.149 135.856,150.373 C134.711,150.905 133.615,151.49 132.604,152.218 C131.828,152.795 130.955,153.234 130.134,153.749 L128.884,154.495 C128.472,154.754 128.047,154.99 127.603,155.188 L124.783,156.541 C123.844,156.999 122.839,157.3 121.868,157.684 C121.607,157.78 121.335,157.845 121.072,157.935 C120.723,158.043 120.386,158.169 120.083,158.381 C119.816,158.575 119.343,158.803 119.018,158.859 C117.625,159.091 116.253,159.351 114.864,159.549 C114.198,159.668 113.559,159.869 112.915,160.095 C112.721,160.163 112.498,160.234 112.307,160.184 C111.233,159.838 110.179,159.912 109.126,159.96 C108.327,160.022 107.527,160.005 106.728,160.044 C105.535,160.091 104.331,160.128 103.148,160.424 C102.988,160.468 102.822,160.466 102.664,160.418 C102.017,160.224 101.365,160.148 100.702,160.113 C99.945,160.041 99.19,159.941 98.438,159.831 C98.068,159.776 97.704,159.683 97.343,159.586 C96.914,159.482 96.495,159.393 96.045,159.388 C95.321,159.379 94.593,159.356 93.873,159.256 C92.957,159.149 92.073,158.904 91.179,158.703 C90.287,158.492 89.395,158.279 88.518,158.028 C87.904,157.863 87.273,157.769 86.649,157.64 C86.45,157.598 86.232,157.6 86.093,157.407 C85.863,157.074 85.517,157.054 85.182,156.999 C84.892,156.951 84.591,156.939 84.312,156.855 C84.012,156.764 83.718,156.633 83.446,156.473 C83.03,156.234 82.612,156.016 82.159,155.864 L79.366,154.939 L76.595,153.965 C75.165,153.481 73.73,153.046 72.295,152.599 C70.486,152.031 68.675,151.472 66.801,150.961 C65.292,150.531 63.779,150.116 62.279,149.66 C61.187,149.321 60.104,148.953 59.022,148.586 C58.695,148.468 58.496,148.397 58.122,148.262 C58.104,148.255 58.015,148.239 57.961,148.166 C57.884,148.061 57.831,147.899 57.768,147.825 C57.556,147.558 57.439,147.575 57.278,147.522 C56.663,147.318 56.523,147.148 55.905,146.954 C55.759,146.906 55.649,146.862 55.358,146.975 C55.095,147.06 54.748,146.874 54.649,146.853 C53.987,146.715 54.033,146.787 53.46,146.41 C53.433,146.393 53.253,146.237 53.183,146.165 C52.759,145.738 51.779,145.425 50.46,145.017 C50.067,144.94 49.667,144.842 49.255,144.854 C49.007,144.862 48.774,144.775 48.594,144.606 C47.9,143.955 47.094,143.501 46.289,143.048 C46.113,142.949 45.662,142.829 45.493,142.718 C45.091,142.454 44.927,142.344 44.428,142.353 C43.589,142.371 42.835,142.054 42.066,141.813 C41.574,141.656 41.099,141.452 40.62,141.257 C40.29,141.124 39.98,140.961 39.576,141.036 C39.364,141.076 39.142,140.938 38.937,140.851 C37.235,140.139 35.689,139.303 34.004,138.544 C33.695,138.409 33.255,138.308 32.947,138.162 C32.324,137.861 31.882,137.512 31.256,137.218 C30.81,137.016 30.186,136.844 29.749,136.611 C28.631,136.023 27.517,135.446 26.446,134.74 C25.55,134.179 24.664,133.592 23.832,132.892 C23.417,132.543 23.004,132.225 22.62,131.821 C22.237,131.418 21.872,131.003 21.53,130.577 C21.198,130.204 20.949,129.657 20.723,129.19 C20.623,128.975 20.579,128.728 20.569,128.493 C20.562,128.325 20.636,128.187 20.751,128.094 C20.603,128.065 20.471,127.974 20.389,127.812 C20.275,127.588 20.188,127.332 20.166,127.079 C20.152,126.543 20.17,125.969 20.351,125.403 C20.774,123.712 22.443,122.167 24.173,121.605 C25.725,121.035 27.231,120.977 28.637,121.029 C30.047,121.094 31.383,121.313 32.681,121.579 C35.999,122.284 39.114,123.248 42.216,124.149 C45.313,125.055 48.386,125.933 51.48,126.621 C54.809,127.425 58.158,127.559 61.57,127.226 C61.995,127.188 62.418,127.139 62.841,127.077 L63.435,126.996 L63.567,126.973 C63.687,126.952 63.666,126.954 63.692,126.948 L63.743,126.933 C63.771,126.923 63.817,126.914 63.82,126.898 L63.721,126.847 C63.693,126.831 63.724,126.853 63.586,126.767 C63.537,126.737 63.503,126.694 63.463,126.648 L63.4,126.578 L63.364,126.546 L63.206,126.438 C62.781,126.157 62.316,125.939 61.891,125.658 C55.215,121.189 49.038,116.024 43.365,110.383 C42.847,109.868 42.387,109.316 41.88,108.791 C41.407,108.311 40.887,107.86 40.423,107.37 C39.558,106.459 38.707,105.534 37.867,104.599 C37.487,104.184 37.154,103.737 36.859,103.247 C36.205,102.155 35.506,101.096 34.679,100.135 C33.397,98.643 32.136,97.131 30.907,95.594 C29.59,93.946 28.305,92.273 27.06,90.569 C26.894,90.341 26.758,90.093 26.6,89.861 C26.391,89.558 26.204,89.243 25.884,89.031 C25.603,88.844 25.221,88.475 25.061,88.184 C24.364,86.947 23.723,85.681 22.951,84.49 C22.581,83.914 22.144,83.394 21.689,82.88 C21.552,82.725 21.4,82.544 21.376,82.343 C21.234,81.217 20.699,80.279 20.209,79.322 C19.834,78.595 19.435,77.881 19.025,77.171 C18.415,76.112 17.849,75.014 16.954,74.113 C16.831,73.993 16.752,73.842 16.716,73.675 C16.571,72.996 16.319,72.365 16.035,71.739 C15.704,71.023 15.398,70.289 15.121,69.542 C14.987,69.171 14.89,68.789 14.807,68.399 C14.706,67.94 14.564,67.507 14.347,67.069 C14.17,66.715 14.002,66.354 13.857,65.963 C13.706,65.572 13.596,65.228 13.477,64.468 C13.436,64.047 13.406,63.622 13.48,63.215 C13.539,62.809 13.695,62.407 13.98,62.111 L14.87,61.23 C15.178,60.893 15.483,60.783 15.724,60.609 C16.765,59.975 18.044,59.562 19.303,59.536 C19.731,59.538 20.164,59.54 20.585,59.565 C20.989,59.623 21.423,59.65 21.807,59.754 C22.051,59.818 22.325,59.841 22.494,60.061 C22.769,60.433 23.146,60.525 23.54,60.64 C23.868,60.749 24.193,60.848 24.495,61.006 C24.826,61.172 25.088,61.416 25.346,61.66 C25.74,62.031 26.08,62.415 26.515,62.712 C28.238,63.982 29.737,65.423 31.21,66.86 C32.361,67.984 33.495,69.109 34.603,70.251 C36.005,71.696 37.377,73.157 38.742,74.614 C39.851,75.79 40.972,76.98 42.077,78.152 C42.868,79.034 43.648,79.903 44.433,80.778 C44.668,81.048 44.81,81.211 45.079,81.519 C45.092,81.534 45.163,81.593 45.174,81.685 C45.191,81.819 45.158,81.991 45.178,82.089 C45.233,82.435 45.349,82.478 45.466,82.605 C45.92,83.093 45.959,83.318 46.425,83.793 C46.535,83.905 46.613,83.999 46.933,84.034 C47.215,84.081 47.44,84.416 47.519,84.482 C48.057,84.918 48.05,84.829 48.392,85.441 C48.408,85.47 48.497,85.697 48.527,85.795 C48.71,86.384 49.463,87.131 50.507,88.068 C50.837,88.307 51.165,88.567 51.55,88.729 C51.78,88.827 51.957,89.005 52.056,89.235 C52.434,90.123 52.997,90.884 53.59,91.619 C53.718,91.781 54.1,92.067 54.217,92.237 C54.499,92.642 54.605,92.818 55.094,92.985 C55.912,93.262 56.514,93.834 57.169,94.331 C57.367,94.478 57.555,94.637 57.741,94.798 C57.692,94.732 57.645,94.672 57.607,94.634 C57.032,94.077 56.472,93.508 55.76,93.087 C55.575,92.977 55.445,92.804 55.396,92.593 C55.314,92.245 55.142,91.933 54.988,91.621 C54.349,90.612 53.875,89.859 53.412,89.608 C53.336,89.565 53.165,89.45 53.144,89.432 C52.7,89.038 52.77,89.059 52.51,88.535 C52.472,88.456 52.237,88.208 52.256,87.965 C52.291,87.694 52.23,87.611 52.16,87.499 C51.862,87.024 51.687,86.946 51.381,86.477 C51.303,86.354 51.293,86.251 51.021,86.133 C50.945,86.096 50.796,86.088 50.69,86.046 C50.616,86.017 50.584,85.946 50.575,85.933 C50.382,85.647 50.28,85.496 50.111,85.246 C49.578,84.414 49.032,83.59 48.528,82.739 C47.831,81.577 47.177,80.39 46.511,79.213 C45.699,77.756 44.89,76.305 44.083,74.857 C43.453,73.699 42.822,72.541 42.199,71.397 C41.378,69.929 40.559,68.465 39.739,66.998 C39.545,66.638 39.288,66.326 39.007,66.024 C38.823,65.825 38.663,65.603 38.535,65.368 C38.415,65.15 38.355,64.899 38.266,64.664 C38.163,64.394 38.091,64.103 37.767,63.975 C37.574,63.898 37.535,63.717 37.462,63.561 C37.233,63.07 37.037,62.563 36.784,62.086 C36.057,60.712 35.277,59.362 34.629,57.947 C34.373,57.389 34.183,56.801 34.007,56.21 C33.897,55.843 33.729,55.52 33.519,55.209 C33.34,54.946 33.165,54.681 33.018,54.4 C32.725,53.828 32.447,53.248 32.182,52.662 C31.951,52.151 31.685,51.662 31.334,51.214 C31.247,51.105 31.196,50.974 31.185,50.834 C31.101,49.792 30.694,48.856 30.331,47.913 C30.092,47.278 29.836,46.652 29.562,46.029 C29.198,45.215 28.87,44.378 28.208,43.692 C28.089,43.571 28.054,43.375 28.026,43.203 C27.935,42.634 27.837,42.069 27.665,41.515 C27.317,40.36 26.867,39.242 26.537,37.973 C26.456,37.683 26.48,37.166 26.558,36.848 C26.654,36.447 26.606,36.186 26.657,35.573 C26.687,35.364 26.716,35.152 26.759,34.944 C26.834,34.748 26.878,34.534 26.989,34.354 C27.114,34.198 27.188,34.009 27.32,33.861 C27.446,33.714 27.629,33.552 27.75,33.429 C27.939,33.235 28.172,33.063 28.401,32.891 C28.856,32.548 29.395,32.26 29.968,32.053 C31.126,31.623 32.41,31.658 33.465,31.939 C34.467,32.194 35.332,32.619 36.105,33.096 C36.881,33.575 37.595,34.099 38.25,34.657 C39.1,35.372 39.989,36.006 40.879,36.631 C41.287,36.907 41.629,37.231 41.964,37.575 C42.685,38.358 43.394,39.147 44.068,39.953 C44.437,40.382 44.753,40.862 45.111,41.296 C45.492,41.768 45.909,42.198 46.282,42.674 C50.364,47.903 54.051,53.314 57.781,58.678 C58.016,59.018 58.2,59.394 58.435,59.734 C58.689,60.099 58.994,60.429 59.248,60.795 C62.516,65.504 65.809,70.179 69.224,74.747 C69.131,74.578 69.035,74.412 68.952,74.239 C68.529,73.375 68.04,72.528 67.881,71.561 C67.787,70.984 67.636,70.803 67.276,70.358 C67.124,70.171 66.904,69.66 66.767,69.463 C66.128,68.563 65.503,67.655 64.692,66.888 C64.482,66.688 64.345,66.423 64.303,66.136 C64.231,65.659 64.055,65.2 63.9,64.747 C63.229,63.237 62.734,62.109 62.213,61.634 C62.126,61.555 61.932,61.352 61.909,61.321 C61.422,60.667 61.503,60.717 61.246,59.951 C61.208,59.837 60.959,59.436 61.004,59.126 C61.073,58.783 61.009,58.656 60.936,58.487 C60.635,57.771 60.436,57.613 60.127,56.899 C60.048,56.712 60.047,56.574 59.74,56.332 C59.654,56.259 59.479,56.199 59.359,56.11 C59.275,56.049 59.245,55.946 59.235,55.925 C59.042,55.486 58.94,55.254 58.771,54.871 C58.239,53.604 57.703,52.337 57.228,51.046 C56.573,49.276 55.985,47.481 55.416,45.678 C54.718,43.462 54.069,41.227 53.522,38.953 C53.087,37.156 52.73,35.334 52.447,33.471 C52.278,32.272 52.128,31.066 52.137,29.773 C52.146,29.124 52.182,28.459 52.358,27.715 C52.548,26.888 53.032,25.895 53.883,25.453 C54.066,25.348 54.246,25.244 54.433,25.137 C54.581,25.038 54.75,24.965 54.916,24.885 C55.247,24.719 55.581,24.556 55.954,24.445 C56.43,24.256 56.966,24.224 57.477,24.236 C57.946,24.29 58.407,24.419 58.812,24.594 C59.314,24.759 59.698,25.045 60.235,24.989 C60.534,24.977 60.774,25.173 61.019,25.321 C61.768,25.808 62.405,26.371 63.027,26.905 C64.816,28.444 66.317,30.113 67.622,31.897 C68.134,32.603 68.564,33.357 68.962,34.12 C69.211,34.593 69.512,35.003 69.855,35.396 C70.147,35.727 70.439,36.062 70.691,36.423 C71.21,37.153 71.699,37.9 72.18,38.652 C72.593,39.308 73.041,39.934 73.579,40.496 C73.711,40.634 73.806,40.801 73.858,40.985 C74.242,42.35 74.977,43.548 75.665,44.751 C76.124,45.559 76.601,46.357 77.104,47.137 C77.765,48.16 78.407,49.208 79.386,49.989 C79.561,50.128 79.667,50.37 79.754,50.586 C80.042,51.303 80.351,52.004 80.741,52.673 C81.55,54.06 82.49,55.353 83.41,56.66 C83.625,56.966 83.842,57.522 83.921,57.888 C84.01,58.304 84.241,58.648 84.46,59.002 C84.627,59.273 84.817,59.53 84.978,59.805 L88.613,65.973 C89.751,67.888 90.899,69.792 92.071,71.68 C92.831,72.892 93.717,74.017 94.686,75.061 C95.118,75.532 95.495,76.03 95.842,76.556 L98.218,80.039 C98.648,80.657 99.048,81.309 99.484,81.922 C99.96,82.58 100.467,83.202 100.962,83.84 C103.618,87.394 106.425,90.84 109.568,93.76 C112.67,96.593 116.337,99.273 119.706,98.741 C120.138,98.686 120.592,98.661 121.034,98.522 C121.516,98.386 121.947,98.099 122.387,97.89 C123.997,97.067 125.5,95.714 126.865,94.146 C128.241,92.586 129.504,90.826 130.744,89.015 C133.226,85.39 135.601,81.536 138.482,77.906 C140.874,74.893 143.622,71.957 147.108,69.781 C148.84,68.697 150.749,67.826 152.752,67.267 C154.806,66.665 156.984,66.53 158.99,66.639 C162.146,66.824 165.144,67.526 167.951,68.623 C169.521,69.236 171.031,69.974 172.403,70.918 C172.873,71.242 173.308,71.615 173.724,72.001 C173.918,72.183 174.078,72.416 174.201,72.652 C174.289,72.818 174.292,72.978 174.23,73.106 Z M179.568,87.62 L179.353,84.961 C179.155,82.514 178.51,78.561 177.921,76.176 L177.29,73.62 C176.7,71.235 175.73,67.335 175.134,64.952 L174.498,62.403 C173.902,60.02 172.474,56.291 171.325,54.116 L170.094,51.787 C168.945,49.612 166.817,46.204 165.367,44.214 L163.859,42.146 C162.409,40.156 159.809,37.086 158.083,35.324 L156.352,33.557 C154.626,31.795 151.934,28.797 150.37,26.893 L148.474,24.587 C146.91,22.683 143.883,20.105 141.75,18.857 L139.205,17.369 C137.071,16.121 133.677,13.93 131.664,12.5 L129.258,10.792 C127.245,9.362 123.649,7.636 121.267,6.958 L118.421,6.148 C116.04,5.469 112.212,4.162 109.916,3.241 L107.115,2.119 C104.818,1.198 100.914,0.557 98.44,0.693 L95.423,0.86 C92.95,0.996 88.907,1.29 86.439,1.513 L83.651,1.766 C81.184,1.988 77.193,2.637 74.783,3.207 L72.053,3.853 C69.643,4.423 65.738,5.494 63.375,6.234 L60.6,7.102 C58.237,7.841 54.527,9.413 52.355,10.594 L49.778,11.997 C47.606,13.178 44.142,15.258 42.079,16.618 L39.604,18.249 C37.541,19.609 34.518,22.232 32.885,24.078 L30.912,26.31 C29.279,28.156 26.596,31.168 24.948,33.001 L23.16,34.992 C21.513,36.826 19.014,39.979 17.607,42 L16.074,44.202 C14.667,46.223 12.452,49.587 11.151,51.676 L9.679,54.042 C8.378,56.131 6.644,59.737 5.824,62.054 L4.89,64.694 C4.071,67.011 3.021,70.88 2.558,73.292 L2.033,76.024 C1.569,78.435 0.925,82.4 0.601,84.834 L0.226,87.644 C-0.098,90.078 -0.07,94.056 0.288,96.485 L0.674,99.1 C1.032,101.529 1.919,105.437 2.645,107.784 L3.395,110.209 C4.121,112.556 5.47,116.34 6.393,118.619 L7.342,120.964 C8.265,123.242 10.174,126.758 11.584,128.776 L13.04,130.858 C14.451,132.877 16.673,136.235 17.979,138.321 L19.364,140.535 C20.67,142.621 23.079,145.834 24.718,147.675 L26.464,149.636 C28.103,151.477 31.094,154.152 33.109,155.579 L35.191,157.055 C37.206,158.483 40.338,161.021 42.151,162.695 L44.018,164.418 C45.83,166.092 49.183,168.237 51.469,169.183 L53.82,170.157 C56.106,171.104 59.805,172.745 62.04,173.805 L64.243,174.85 C66.478,175.909 70.253,177.338 72.632,178.025 L75.062,178.726 C77.441,179.412 81.413,180.038 83.89,180.116 L86.422,180.196 C88.899,180.274 92.952,180.301 95.43,180.257 L98.107,180.209 C100.584,180.164 104.607,179.777 107.046,179.345 L109.726,178.871 C112.166,178.441 116.071,177.414 118.405,176.589 L120.976,175.682 C123.31,174.858 127.036,173.291 129.256,172.201 L131.698,171.003 C133.917,169.914 137.425,167.914 139.493,166.561 L141.774,165.066 C143.84,163.712 146.949,161.168 148.681,159.412 L150.582,157.488 C152.314,155.732 155.051,152.771 156.664,150.907 L158.324,148.989 C159.937,147.126 162.365,143.919 163.719,141.863 L165.11,139.754 C166.464,137.698 168.299,134.141 169.186,131.849 L170.088,129.52 C170.976,127.228 172.506,123.509 173.49,121.256 L174.506,118.927 C175.49,116.674 176.691,112.861 177.175,110.453 L177.683,107.932 C178.167,105.525 178.8,101.56 179.09,99.122 L179.402,96.502 C179.691,94.064 179.766,90.067 179.568,87.62 L179.568,87.62 Z" id="Fill-26" fill="#000105" mask="url(#mask-4)"></path>
            </g>
        </g>
    </g>
</svg>