<svg xmlns="http://www.w3.org/2000/svg" width="66" height="108" viewBox="0 0 66 108">
    <g fill="none" fill-rule="evenodd">
        <path fill="#F6BC25" d="M1.07 35.52c.13.877.451 2.288.714 3.136l.27.875c.264.847.752 2.214 1.085 3.036l.344.847c.334.822 1.025 2.091 1.535 2.82l.526.752c.51.729 1.315 1.941 1.787 2.694l.501.8a23.149 23.149 0 0 0 1.937 2.577l.632.708c.593.665 1.674 1.63 2.404 2.146l.753.533a30.32 30.32 0 0 1 2.518 2.036l.675.622c.655.605 1.869 1.379 2.696 1.72l.85.352c.827.342 2.165.935 2.974 1.317l.797.377c.808.383 2.174.899 3.035 1.147l.879.253c.86.248 2.297.474 3.193.502l.917.029a80.3 80.3 0 0 0 3.258.022l.969-.018a25.07 25.07 0 0 0 3.234-.311l.97-.171a23.884 23.884 0 0 0 3.139-.825l.93-.327a33.773 33.773 0 0 0 2.996-1.257l.883-.432a31.853 31.853 0 0 0 2.82-1.604l.825-.54a18.424 18.424 0 0 0 2.499-2.04l.687-.696a59.814 59.814 0 0 0 2.2-2.375l.601-.693a29.958 29.958 0 0 0 1.952-2.573l.503-.761a18.176 18.176 0 0 0 1.475-2.854l.326-.84c.321-.828.875-2.171 1.23-2.985l.369-.84c.356-.814.79-2.19.965-3.06l.184-.91c.175-.869.404-2.3.509-3.18l.112-.947c.06-.503.094-1.189.099-1.85v-.347c-.003-.369-.015-.72-.039-1.01l-.077-.96a24.032 24.032 0 0 0-.518-3.17l-.229-.924c-.213-.86-.564-2.269-.78-3.129l-.23-.92v-.002c-.06.044-.121.09-.182.131l-.274.234a10.605 10.605 0 0 0-1.747 1.896c-1.315 1.85-2.071 4.158-2.42 6.5-.097.694-.181 1.446-.267 2.19-.1.745-.192 1.489-.317 2.233-.244 1.486-.527 2.975-.942 4.442-.05.204-.141.397-.203.598-.058.187-.088.382-.146.57a25.105 25.105 0 0 1-1.814 4.296 19.19 19.19 0 0 1-2.73 3.83c-.197.21-.39.416-.603.607-.191.183-.37.387-.562.57-.348.354-.746.647-1.123.964-.173.137-.345.274-.553.362a7.88 7.88 0 0 0-1.291.731c-.308.23-.655.403-.98.607l-.497.296a4.047 4.047 0 0 1-.509.274l-1.12.537c-.372.181-.771.3-1.157.452-.104.039-.212.064-.316.1a1.401 1.401 0 0 0-.393.177 1.216 1.216 0 0 1-.423.189c-.553.092-1.098.195-1.649.274a5.006 5.006 0 0 0-.774.216c-.077.027-.166.055-.241.035-.427-.137-.845-.107-1.263-.089-.318.025-.635.018-.953.034-.473.018-.952.033-1.421.15a.346.346 0 0 1-.193-.002 3.258 3.258 0 0 0-.778-.121c-.301-.028-.6-.068-.9-.112a4.015 4.015 0 0 1-.434-.097 2.259 2.259 0 0 0-.515-.079 6.892 6.892 0 0 1-.863-.052c-.364-.042-.715-.139-1.07-.219a23.994 23.994 0 0 1-1.056-.267c-.244-.065-.495-.103-.742-.154-.08-.017-.166-.016-.221-.092-.092-.132-.23-.14-.362-.162-.115-.019-.234-.024-.345-.057a1.59 1.59 0 0 1-.344-.151 2.851 2.851 0 0 0-.511-.242l-1.11-.366-1.1-.386c-.567-.192-1.137-.364-1.707-.541a60.252 60.252 0 0 0-2.181-.65c-.6-.17-1.2-.334-1.796-.515-.433-.134-.863-.28-1.293-.426l-.358-.128c-.007-.003-.042-.009-.063-.038-.031-.042-.052-.106-.077-.135-.084-.106-.13-.1-.195-.12-.244-.082-.3-.148-.545-.226-.058-.018-.102-.036-.217.009-.105.034-.242-.04-.282-.048-.262-.055-.244-.027-.472-.176a1.514 1.514 0 0 1-.11-.097c-.168-.17-.557-.294-1.08-.455-.157-.03-.316-.07-.48-.065a.365.365 0 0 1-.262-.098c-.275-.258-.595-.438-.915-.617-.07-.04-.249-.087-.316-.13-.16-.106-.225-.15-.423-.146-.333.007-.633-.118-.938-.214-.195-.062-.384-.143-.574-.22-.131-.053-.254-.117-.415-.087-.084.015-.172-.04-.253-.074-.676-.282-1.29-.613-1.959-.914-.123-.054-.298-.093-.42-.151-.247-.12-.422-.258-.671-.374-.177-.08-.425-.148-.599-.241-.443-.233-.886-.462-1.31-.741a8.95 8.95 0 0 1-1.039-.733c-.165-.138-.329-.264-.481-.424a7.818 7.818 0 0 1-.433-.493c-.132-.148-.23-.364-.32-.55a.734.734 0 0 1-.062-.276.19.19 0 0 1 .073-.158.202.202 0 0 1-.144-.112.81.81 0 0 1-.089-.29c-.005-.213.002-.44.074-.664.168-.67.83-1.283 1.518-1.505.616-.226 1.214-.25 1.772-.228.56.025 1.09.112 1.605.218 1.318.279 2.555.66 3.787 1.018 1.23.359 2.45.707 3.678.98 1.322.318 2.651.371 4.007.239.168-.015.336-.034.504-.06l.236-.031.053-.01c.047-.007.039-.007.05-.009l.02-.006c.01-.004.029-.008.03-.014l-.04-.02-.053-.032c-.02-.012-.033-.029-.049-.047l-.025-.028-.014-.013-.063-.042c-.169-.111-.353-.198-.522-.309-2.651-1.771-5.104-3.818-7.356-6.053-.206-.204-.388-.423-.59-.63-.188-.19-.394-.37-.578-.564a54.235 54.235 0 0 1-1.015-1.098 3.35 3.35 0 0 1-.4-.536 8.782 8.782 0 0 0-.866-1.233 66.42 66.42 0 0 1-1.498-1.8 58.316 58.316 0 0 1-1.527-1.99c-.066-.091-.12-.19-.183-.281-.083-.12-.157-.245-.284-.329a1.173 1.173 0 0 1-.327-.336c-.277-.49-.531-.991-.838-1.464a5.352 5.352 0 0 0-.5-.637c-.055-.062-.116-.133-.125-.213-.056-.446-.27-.818-.463-1.197a21.11 21.11 0 0 0-.47-.853c-.186-.32-.362-.65-.593-.946a10.8 10.8 0 0 0-.155.406l-.338.953a25.873 25.873 0 0 0-.844 3.104l-.19.986c-.168.87-.4 2.302-.518 3.18l-.136 1.015c-.05.387-.076.883-.08 1.39v.272c.007.556.04 1.109.103 1.53l.14.944"/>
        <path fill="#F6BC25" d="M22.977 4.746c.204.28.375.578.533.881.099.188.218.35.354.506.116.131.232.263.332.407.206.289.4.585.591.883.164.26.342.508.556.73a.46.46 0 0 1 .11.195c.153.54.445 1.015.718 1.492.182.32.372.636.571.945.263.406.518.82.907 1.13.069.055.111.151.146.237.114.284.237.561.392.827.32.55.694 1.062 1.06 1.58.085.12.17.341.202.487.036.164.127.3.214.44.067.108.142.21.206.32l1.444 2.443c.451.759.907 1.513 1.373 2.262a9 9 0 0 0 1.038 1.34c.172.186.32.383.46.592l.942 1.38c.171.245.33.503.503.746.189.261.39.507.587.76 1.054 1.408 2.169 2.774 3.417 3.93 1.232 1.124 2.688 2.185 4.025 1.975.172-.022.353-.032.528-.087.191-.054.362-.168.537-.25.64-.327 1.236-.863 1.778-1.484.546-.618 1.048-1.316 1.54-2.033.986-1.437 1.929-2.964 3.073-4.402.95-1.195 2.04-2.358 3.425-3.22a8.636 8.636 0 0 1 2.241-.996c.815-.239 1.68-.292 2.477-.249a11.633 11.633 0 0 1 3.56.787l-.01-.02-.446-.84a27.16 27.16 0 0 0-1.71-2.735l-.545-.747a26.895 26.895 0 0 0-2.09-2.463l-.626-.638a44.987 44.987 0 0 1-2.165-2.405l-.685-.833C53.974 7.932 52.879 7 52.107 6.55l-.92-.537c-.773-.45-2-1.242-2.729-1.758l-.87-.617c-.728-.516-2.029-1.139-2.89-1.384l-1.03-.292A38.097 38.097 0 0 1 40.59.912L39.577.507c-.83-.332-2.243-.564-3.138-.515l-1.091.06c-.895.05-2.358.156-3.25.236L31.089.38c-.893.08-2.336.314-3.208.52l-.988.233c-.872.206-2.284.593-3.139.86l-1.004.313c-.42.132-.958.336-1.49.56.662.583 1.227 1.21 1.717 1.88M6.655 16.957c.684.503 1.28 1.074 1.865 1.644.457.445.907.89 1.347 1.343.556.573 1.101 1.152 1.643 1.73l1.325 1.401.935 1.04.256.294c.006.006.034.03.038.066.007.053-.006.121.001.16.023.137.068.154.115.204.18.194.196.283.38.472.045.044.075.081.203.095.112.019.201.152.233.177.213.173.21.138.346.38.006.012.042.102.054.141.072.233.371.53.786.9.131.095.26.198.414.262.092.04.162.11.2.201.15.352.374.653.61.944.05.065.202.178.249.246.112.16.154.23.348.296.325.11.564.336.824.533.078.058.153.121.227.185a.615.615 0 0 0-.053-.065c-.229-.22-.45-.446-.733-.613a.305.305 0 0 1-.145-.195c-.033-.138-.1-.262-.162-.385-.254-.4-.442-.7-.626-.798a1.46 1.46 0 0 1-.106-.07c-.177-.156-.148-.148-.252-.355-.015-.032-.109-.13-.1-.226.014-.108-.01-.14-.039-.185-.118-.188-.188-.22-.31-.405-.03-.049-.034-.09-.142-.136-.03-.015-.09-.019-.132-.035-.029-.011-.042-.04-.045-.045l-.184-.272c-.212-.33-.429-.656-.629-.993-.277-.46-.536-.93-.801-1.397l-.964-1.727-.748-1.37-.977-1.744a1.893 1.893 0 0 0-.29-.386 1.305 1.305 0 0 1-.188-.26c-.047-.086-.071-.185-.107-.279-.041-.107-.07-.222-.198-.273-.076-.03-.092-.102-.12-.164-.092-.194-.17-.395-.27-.584-.289-.545-.599-1.08-.856-1.64a5.076 5.076 0 0 1-.247-.689 1.444 1.444 0 0 0-.193-.396 3.21 3.21 0 0 1-.2-.321 15.49 15.49 0 0 1-.332-.689c-.024-.054-.054-.106-.08-.16a32.274 32.274 0 0 0-1.629 2.091l-.554.796c-.154.22-.336.488-.527.771.026.023.052.045.076.068.157.147.291.3.464.417"/>
        <path fill="#F6BC25" d="M4.656 21.222c.173.333.372.655.556.984l.396.737c.08.14.182.268.264.407.347.585.749 1.348 1.123 1.92.48.73.926 1.266 1.434 1.976.084.118.164.233.178.393a.526.526 0 0 0 .108.249 12 12 0 0 0 .637.847c.408.476.77.984 1.149 1.482.205.266.418.525.64.777a.894.894 0 0 0 .216.165c.08.05.135.112.17.203a.997.997 0 0 0 .16.25c.08.099.173.185.256.281.117.138.228.281.426.329.053.012.095.056.131.095l.478.526c.044.047.053.117.04.188-.016.088.03.136.083.189l.565.586c.164.17.325.342.535.46.046.027.093.067.108.117.066.217.28.3.372.5.041.09.117.152.206.194.243.117.35.418.676.427.062.002.108.087.156.117.069.044.135.09.186.153.352.442.783.796 1.226 1.135.393.303.761.636 1.146.95.048.039.097.085.123.143.078.179.218.29.362.4.122.093.243.189.362.286.127.102.27.175.426.233.152.056.275.168.41.257.022.013.045.043.043.068-.017.19.118.245.225.323.588.42 1.182.832 1.79 1.223.045.03.092.055.141.075.052.02.16.066.248.091.195.06.416.162.502.323.06.117.203.19.337.271l.752.432.257.24c.039.04.096.086.118.118l.032.084c.042.113.081.226.117.339.01.042.029.073.029.124a.702.702 0 0 1-.052.107.704.704 0 0 1-.075.11c-.032.038-.046.073-.095.114-.049.047-.102.092-.136.144-.037.05-.116.097-.123.168-.014.05-.124.1-.235.124-.336.055-.58.142-.868.233a.928.928 0 0 1-.355.068c-.289-.021-.459.042-.68.09l-.573.119c-.143.026-.285.059-.43.078a8.04 8.04 0 0 1-.87.1 13.194 13.194 0 0 1-3.208-.189c-1.044-.2-2.008-.453-2.994-.716-.125-.034-.25-.064-.358-.15-.058-.045-.136-.06-.208-.074-1.73-.335-3.383-.957-5.007-1.233-.465-.075-.919-.14-1.34-.164a3.614 3.614 0 0 0-.956.052c-.276.06-.517.153-.775.358-.07.053-.134.121-.212.183l-.214.22a.977.977 0 0 1-.237.19c.113.008.223.025.318.055.291.106.6.228.883.366.232.12.508.215.75.337l.744.362c.368.188.739.372 1.119.55.098.048.195.15.293.2.14.07.277.088.418.154l.561.267c.675.33 1.368.634 2.056.943l.65.281c.056.025.122.048.153.099.069.113.172.146.281.182.544.176 1.096.329 1.614.572.094.045.197.07.27.158.03.037.068.061.111.074.252.074.487.198.752.237a.888.888 0 0 1 .314.13c.19.113.379.224.613.226.078 0 .15.045.225.074.876.342 1.758.675 2.643.996l1.406.501c.307.107.596.27.904.378 1.197.413 2.405.722 3.625 1.16.185.065.367.134.539.24.119.072.266.099.406.123.206.035.402.082.558.24.08.084.174.16.315.073.047-.028.12.007.176.026.24.082.478.164.714.254.096.036.182.104.278.141.128.052.257.127.393.13.2.003.372.085.555.138.083.023.085.031.12.175.004.012.013.021.024.022.352.012.696.048 1.025.157a.67.67 0 0 1 .272.152.56.56 0 0 0 .324.158c.111.02.22.037.3.143a.234.234 0 0 0 .136.076c.315.068.628.14.947.179a.228.228 0 0 0 .175-.053c.095-.09.182-.072.275-.052.512.12 1.03.198 1.546.285.463.092.93.145 1.396.2.161.018.324.032.485.042.163.003.324.005.486.013.331.014.663.059.995.065l1.069-.04c.263.002.525-.009.786-.03.152-.013.302-.049.453-.063l.504-.036.531-.07c.357-.05.72-.082 1.03-.154.396-.103.748-.21 1.098-.315a4.17 4.17 0 0 0 .522-.184c.175-.069.356-.137.548-.205.127-.045.251-.086.401-.055a.5.5 0 0 0 .255-.029c.304-.13.61-.261.902-.415.529-.254 1.04-.538 1.56-.812.28-.145.554-.302.804-.498a.837.837 0 0 0 .174-.19.355.355 0 0 1 .205-.141.941.941 0 0 0 .25-.126c.1-.064.19-.144.29-.21.145-.092.286-.187.335-.378.014-.05.057-.087.096-.12l.515-.42c.046-.038.113-.043.182-.026.083.019.133-.02.183-.07.178-.18.364-.356.549-.531.157-.155.332-.295.429-.502.022-.045.058-.09.104-.106.201-.07.267-.276.453-.369a.384.384 0 0 0 .176-.2c.104-.225.362-.363.343-.667-.005-.059.07-.109.095-.155a.64.64 0 0 1 .126-.187c.2-.176.357-.385.5-.602.145-.217.278-.441.41-.666.208-.416.463-.806.685-1.215a.377.377 0 0 1 .107-.143c.147-.107.224-.258.297-.413.063-.13.127-.26.195-.388.067-.14.098-.289.114-.447.015-.152.09-.291.142-.435.008-.022.03-.05.054-.053.182-.028.205-.164.25-.28.235-.647.47-1.292.66-1.956.03-.1.042-.198.024-.307-.018-.112-.014-.228.097-.308.081-.058.091-.147.11-.23.102-.438.21-.872.293-1.315.044-.21.112-.417.164-.627.03-.125.073-.247.001-.386-.026-.05 0-.12.022-.175.061-.147.09-.298.088-.457 0-.06.004-.132.046-.171.106-.1.089-.222.104-.341.053-.52.096-1.04.17-1.556.132-.945.235-1.876.352-2.845.114-.992.304-1.979.548-2.956a.899.899 0 0 1 .15-.356c.046-.057.062-.136.077-.207.371-1.723 1.194-3.355 2.304-4.81.17-.203.33-.414.519-.603.194-.185.382-.375.591-.545a5.265 5.265 0 0 1 1.695-.951c-.726-.141-1.443-.297-2.154-.433a29.72 29.72 0 0 0-1.605-.253c-.459-.05-.917-.07-1.357-.041a5.386 5.386 0 0 0-1.267.247c-.848.258-1.633.698-2.404 1.206a.53.53 0 0 0-.17.158c-.068.127-.176.204-.276.298-1.599 1.42-2.823 3.328-4.104 5.235a26.102 26.102 0 0 1-1.146 1.545c-.094.118-.212.212-.23.382-.006.066-.067.135-.121.186-.147.138-.26.293-.361.468-.038.065-.09.147-.152.17-.17.06-.267.192-.376.32a8.352 8.352 0 0 1-.564.632 6.825 6.825 0 0 1-1.48 1.091c-.102.063-.22.104-.296.21-.102.145-.268.192-.426.193a1.74 1.74 0 0 0-.435.07 4.41 4.41 0 0 1-2.946-.206c-.157-.074-.307-.182-.495-.096-.026.01-.074-.002-.103-.017-.198-.093-.387-.196-.529-.343a2.548 2.548 0 0 0-.478-.389c-.163-.106-.307-.23-.458-.347a1.9 1.9 0 0 0-.572-.348.62.62 0 0 1-.19-.13l-.68-.616c-.21-.216-.419-.435-.618-.66-.23-.25-.429-.518-.652-.768a14.888 14.888 0 0 0-.693-.727c-.07-.067-.12-.15-.17-.233-.033-.058-.125-.125-.13-.194-.02-.351-.337-.531-.45-.825a.59.59 0 0 0-.2-.27c-.206-.148-.287-.397-.51-.527a.312.312 0 0 1-.113-.149c-.107-.26-.273-.482-.435-.707-.19-.258-.37-.521-.544-.788-.048-.073-.09-.14-.184-.152a.268.268 0 0 1-.189-.106c-.159-.23-.32-.458-.47-.693a.392.392 0 0 1-.077-.173c-.015-.227-.14-.397-.26-.572-.084-.123-.155-.254-.24-.375a1.412 1.412 0 0 0-.221-.267.541.541 0 0 1-.17-.261c-.03-.1-.065-.204-.12-.292a49.713 49.713 0 0 0-.633-.991c-.406-.608-.816-1.212-1.168-1.852-.2-.36-.424-.707-.642-1.056a.739.739 0 0 0-.21-.234c-.151-.097-.24-.236-.327-.38-.527-.874-.893-1.6-1.416-2.478-.408-.685-.972-1.52-1.376-2.204-.096-.163-.174-.337-.271-.5l-.516-.828c-.225-.38-.434-.768-.662-1.143-.212-.35-.444-.686-.659-1.03-.21-.337-.403-.682-.617-1.013a39.464 39.464 0 0 0-.972-1.395 21.7 21.7 0 0 0-1.133-1.458c-.071-.083-.137-.16-.112-.294a.267.267 0 0 0-.06-.194 5.769 5.769 0 0 0-.748-.766.262.262 0 0 0-.151-.068.343.343 0 0 1-.131-.024l-.038.02-.932.507c-.158.085-.337.186-.524.293.013.174.03.351.052.531.009.067.03.155-.006.2-.11.136-.048.254.024.36.138.203.16.424.178.658.011.16.027.329.093.473.096.206.157.419.217.635.39 1.413.831 2.835 1.383 4.219.142.357.345.69.495 1.044.23.541.467 1.078.712 1.613.464 1.012.96 2.011 1.475 3 .044.083.103.165.118.254.048.268.2.477.353.689.08.108.157.226.196.353.093.302.268.562.398.846.023.048.057.09.1.122.107.077.156.192.22.297.358.578.64 1.195.943 1.803.06.122.12.238.252.308.06.032.098.106.136.167l.441.72c.475.766.962 1.523 1.459 2.275l.412.622c.104.155.15.315.256.47.074.11.204.216.276.326l.828 1.266c.371.568.715 1.152 1.027 1.756.186.355.37.714.483 1.103.038.13.057.269.058.406 0 .06-.025.106-.061.14a.096.096 0 0 1-.01.011l-.006.005a.177.177 0 0 1-.121.051.788.788 0 0 1-.288-.039 3.814 3.814 0 0 1-.534-.244c-.631-.35-1.177-.813-1.7-1.297a14.093 14.093 0 0 1-.888-.908c-.977-1.096-1.984-2.169-2.813-3.377-.034-.05-.07-.106-.124-.135-.101-.054-.165-.139-.232-.222a104.798 104.798 0 0 1-3.022-4.004c-.267-.372-.504-.766-.748-1.155-.057-.09-.088-.193-.21-.234-.047-.015-.078-.072-.1-.12a1.008 1.008 0 0 0-.238-.333c-.038-.036-.084-.084-.082-.133.007-.135-.068-.22-.135-.312-.113-.154-.238-.299-.346-.456l-.656-.992c-.041-.063-.076-.133-.163-.157-.118-.033-.154-.13-.169-.231a.586.586 0 0 0-.103-.253l-1.038-1.504c-.063-.092-.106-.207-.268-.196-.022.001-.046-.02-.058-.037-.072-.116-.162-.224-.204-.354a1.235 1.235 0 0 0-.18-.367 9.846 9.846 0 0 1-.224-.316c-.085-.127-.173-.249-.318-.324a.344.344 0 0 1-.115-.111c-.241-.34-.496-.67-.72-1.022-.25-.395-.507-.784-.845-1.114a.582.582 0 0 1-.11-.169c-.02-.042-.087-.088-.082-.14.026-.272-.217-.386-.287-.6a.335.335 0 0 0-.142-.189c-.158-.093-.203-.28-.379-.352-.04-.017-.07-.06-.086-.1-.075-.186-.203-.333-.327-.483a261.85 261.85 0 0 0-.306-.368l-.442.499c-.59.665-1.558 1.749-2.154 2.412.058.122.117.244.172.368.117.26.216.53.337.789.174.375.365.743.548 1.114l.61 1.239c.037.074.073.143.016.244a.196.196 0 0 0-.007.16c.108.258.225.512.345.764a.2.2 0 0 0 .092.1c.106.048.144.136.183.227.042.098.1.181.199.245.077.049.133.127.178.204.15.261.243.549.314.846.002.01.011.016.022.016.13.006.137.006.171.073.073.149.172.282.207.452.024.116.11.213.175.314.049.075.118.138.164.215.113.187.217.38.324.57.025.045.067.102.05.147-.055.135.024.198.108.253.16.103.23.257.29.423a.914.914 0 0 0 .169.317c.117.123.205.262.29.405.555.93 1.08 1.88 1.67 2.79.153.234.348.44.503.673l.715 1.061c.456.666.93 1.32 1.41 1.966.04.055.093.104.11.17.053.194.192.32.329.451.07.067.141.142.18.23.091.211.25.373.37.563.021.033.051.058.088.074.092.037.139.114.198.182.321.368.583.782.862 1.183.056.081.109.158.22.185.05.012.085.061.12.1l.396.458c.428.484.863.96 1.31 1.424l.37.381c.094.097.143.207.238.3.068.067.179.117.244.185.254.253.502.512.759.761.341.34.67.689.981 1.063.048.055.095.114.142.17l.013.015.009.012c.083.101.16.208.233.318.04.056.082.107.12.163.05.077.084.172.107.268.009.04.006.077-.003.112-.002.014-.009.026-.014.039-.005.01-.008.02-.014.029-.007.01-.017.018-.026.027a.191.191 0 0 1-.113.06 1.259 1.259 0 0 1-.377-.004c-.362-.06-.688-.208-1.014-.354a10.87 10.87 0 0 1-1.575-.886c-.372-.251-.74-.506-1.101-.773-.095-.069-.179-.194-.27-.266-.133-.102-.275-.148-.407-.251l-.52-.41a74.211 74.211 0 0 1-1.855-1.534l-.568-.492c-.048-.042-.107-.087-.123-.148-.034-.134-.127-.202-.224-.276-.486-.359-.977-.717-1.403-1.15-.077-.08-.167-.148-.205-.262a.242.242 0 0 0-.08-.117c-.218-.174-.4-.386-.641-.538a.96.96 0 0 1-.254-.258c-.14-.188-.272-.378-.495-.487-.074-.036-.125-.112-.184-.173a75.138 75.138 0 0 1-2.01-2.207l-1.031-1.18c-.224-.258-.4-.557-.622-.815-.86-.999-1.759-1.96-2.63-2.92a2.91 2.91 0 0 1-.363-.471c-.07-.121-.19-.215-.304-.3-.17-.124-.321-.254-.388-.468-.035-.112-.084-.222-.254-.202-.055.006-.107-.059-.15-.101l-.554-.525c-.075-.071-.128-.166-.2-.24-.098-.095-.187-.213-.313-.266-.183-.072-.312-.202-.462-.308-.07-.045-.067-.052-.053-.2.002-.014-.004-.025-.014-.028-.153-.056-.3-.107-.442-.16-.144.223-.279.434-.393.618l-.533.854c-.106.17-.222.373-.339.588.073.145.147.29.218.437.151.312.286.634.45.944"/>
        <path fill="#F6BC25" d="M14.04 8.47c.15.187.316.358.464.547 1.62 2.072 3.085 4.216 4.566 6.341.094.135.166.284.26.419.1.144.222.275.322.42a191.976 191.976 0 0 0 3.962 5.529c-.037-.067-.075-.133-.108-.201-.168-.343-.362-.679-.426-1.062-.037-.229-.097-.3-.24-.476-.06-.074-.147-.277-.202-.355-.253-.357-.502-.716-.824-1.02a.515.515 0 0 1-.154-.298c-.029-.19-.099-.371-.16-.55-.267-.599-.463-1.046-.67-1.234a2.039 2.039 0 0 1-.12-.124c-.195-.26-.162-.24-.264-.543-.015-.045-.114-.204-.096-.327.027-.136.002-.186-.027-.253-.12-.284-.199-.347-.321-.63-.032-.074-.032-.128-.154-.224-.034-.03-.103-.053-.151-.088-.034-.024-.046-.065-.05-.074l-.184-.417c-.211-.502-.424-1.004-.612-1.516a45.928 45.928 0 0 1-.72-2.127 39.884 39.884 0 0 1-.752-2.665 25.562 25.562 0 0 1-.427-2.172l-.025-.183c-.324.199-.63.392-.878.555l-.895.589c-.503.33-1.163.87-1.722 1.39.064.073.131.144.193.218.147.17.272.36.414.531"/>
        <path fill="#1A1919" d="M65.62 103.488H1.035a.206.206 0 0 0-.206.205v3.792c0 .114.092.206.206.206h64.583a.206.206 0 0 0 .206-.206v-3.792a.206.206 0 0 0-.206-.205M8.987 97.028c-2.12 0-4.064-1.44-4.064-4.231 0-2.704 1.944-4.144 4.064-4.144 2.062 0 3.858 1.41 3.858 4.144 0 2.82-1.796 4.231-3.858 4.231zm3.857 3.439h3.8a.206.206 0 0 0 .206-.205V85.39a.206.206 0 0 0-.206-.206h-3.8a.206.206 0 0 0-.205.206v.958c0 .16-.194.236-.304.12-.571-.598-1.922-1.548-3.937-1.548-3.504 0-7.568 2.615-7.568 7.876 0 5.436 4.064 7.964 7.568 7.964 2.003 0 3.35-.89 3.927-1.59.106-.13.314-.058.314.109v.982c0 .113.092.205.205.205zM20.083 81.6a.206.206 0 0 0-.206.205v18.457c0 .113.093.205.206.205h3.8a.206.206 0 0 0 .206-.205V81.805a.206.206 0 0 0-.206-.205h-3.8M30.775 91.087a3.845 3.845 0 0 1 3.632-2.581c1.502 0 3.18.94 3.652 2.821H30.94a.177.177 0 0 1-.165-.24zm.101 3.208h10.71a.208.208 0 0 0 .206-.182c.803-6.624-3.941-9.192-7.385-9.192-3.475 0-8.04 2.615-8.04 7.964 0 5.26 4.477 7.876 8.305 7.876 2.895 0 4.751-.874 6.068-2.174a.206.206 0 0 0-.003-.293l-2.07-2.012a.208.208 0 0 0-.242-.033c-1.019.551-1.771.956-3.606.956-1.978 0-3.522-.92-4.112-2.682a.175.175 0 0 1 .169-.228zM44.125 85.39v14.872c0 .113.092.205.206.205h3.8a.206.206 0 0 0 .205-.205v-6.32c.265-2.938 2.591-4.966 5.418-4.966.229 0 .492 0 .764.041a.205.205 0 0 0 .238-.202v-3.608a.204.204 0 0 0-.167-.202c-.32-.055-.626-.055-.952-.055-2.398 0-4.11 1.3-4.966 3.157-.08.171-.335.113-.335-.074V85.39a.206.206 0 0 0-.206-.206h-3.8a.206.206 0 0 0-.205.206M65.62 85.185h-2.917a.176.176 0 0 1-.176-.176v-3.204a.206.206 0 0 0-.205-.205h-3.8a.206.206 0 0 0-.206.205v3.204a.176.176 0 0 1-.176.176h-1.768a.205.205 0 0 0-.205.206v3.057c0 .113.091.205.205.205h1.768c.097 0 .176.079.176.176V95.5c0 4.32 2.002 5.143 4.388 5.143 1.381 0 2.348-.18 2.997-.446a.203.203 0 0 0 .124-.189v-3.106a.205.205 0 0 0-.265-.196c-.549.169-1.081.234-1.767.234-1.06 0-1.266-.764-1.266-1.469V88.83c0-.097.079-.176.176-.176h2.916a.206.206 0 0 0 .206-.205V85.39a.206.206 0 0 0-.206-.206M1.595 73.258a.118.118 0 0 0-.118.117v5.086c0 .065.053.117.118.117h1.23a.117.117 0 0 0 .119-.117v-5.086a.117.117 0 0 0-.118-.117H1.595M5.546 73.258H4.315a.117.117 0 0 0-.118.117v5.086c0 .065.053.117.118.117h1.23a.117.117 0 0 0 .118-.117v-2.9c.113-.37.575-1.106 1.354-1.106.563 0 .902.297.902 1.166v2.84c0 .065.052.117.118.117h1.23a.118.118 0 0 0 .118-.117V75.52c0-1.678-1.005-2.343-2.02-2.343-.774 0-1.29.449-1.542.788-.051.07-.16.035-.16-.05v-.539a.117.117 0 0 0-.117-.117M12.249 72.01h-1.231a.118.118 0 0 0-.118.117v1.043c0 .048-.04.088-.088.088h-.543a.117.117 0 0 0-.117.117v.973c0 .065.052.117.117.117h.543c.048 0 .088.04.088.088v2.296c0 1.504.697 1.79 1.528 1.79.46 0 .788-.057 1.014-.143a.115.115 0 0 0 .073-.109v-.99a.117.117 0 0 0-.148-.112 2.047 2.047 0 0 1-.56.065c-.37 0-.44-.265-.44-.511v-2.286c0-.048.038-.088.087-.088h.933a.118.118 0 0 0 .117-.117v-.973a.118.118 0 0 0-.117-.117h-.933a.088.088 0 0 1-.088-.088v-1.043a.118.118 0 0 0-.117-.118M15.737 75.279a1.338 1.338 0 0 1 1.251-.865c.523 0 1.108.327 1.272.982h-2.44c-.06 0-.106-.06-.083-.117zm.06 1.15h3.649a.12.12 0 0 0 .118-.105c.255-2.275-1.384-3.158-2.576-3.158-1.21 0-2.799.91-2.799 2.773 0 1.831 1.559 2.742 2.892 2.742.983 0 1.621-.29 2.078-.724a.117.117 0 0 0-.002-.168l-.661-.644a.118.118 0 0 0-.14-.019c-.339.184-.604.316-1.224.316-.675 0-1.205-.307-1.42-.896-.02-.057.025-.116.085-.116zM24.295 74.47v-1.165a.115.115 0 0 0-.097-.116c-.098-.013-.192-.013-.293-.013-.79 0-1.367.406-1.678.997-.044.083-.168.055-.168-.038v-.76a.117.117 0 0 0-.117-.117H20.71a.117.117 0 0 0-.117.117v5.086c0 .065.052.117.117.117h1.23a.117.117 0 0 0 .118-.117v-2.154a1.864 1.864 0 0 1 1.887-1.73c.066 0 .141 0 .219.009.07.007.13-.046.13-.116M26.467 73.258h-1.231a.117.117 0 0 0-.118.117v5.086c0 .065.053.117.118.117h1.23a.117.117 0 0 0 .118-.117v-2.9c.113-.37.575-1.106 1.354-1.106.563 0 .902.297.902 1.166v2.84c0 .065.052.117.117.117h1.231a.118.118 0 0 0 .118-.117V75.52c0-1.678-1.005-2.343-2.02-2.343-.774 0-1.29.449-1.542.788-.051.07-.16.035-.16-.05v-.539a.117.117 0 0 0-.117-.117M34.124 77.381c-.739 0-1.415-.501-1.415-1.473 0-.941.676-1.443 1.415-1.443.717 0 1.343.491 1.343 1.443 0 .982-.626 1.473-1.343 1.473zm1.389 1.197h1.23a.117.117 0 0 0 .118-.117v-5.086a.117.117 0 0 0-.118-.117h-1.23a.117.117 0 0 0-.118.117v.224a.088.088 0 0 1-.148.064 1.937 1.937 0 0 0-1.328-.497c-1.22 0-2.635.91-2.635 2.742 0 1.893 1.415 2.773 2.635 2.773.651 0 1.104-.27 1.324-.505a.088.088 0 0 1 .152.059v.226c0 .065.053.117.118.117zM39.889 72.01h-1.231a.118.118 0 0 0-.118.117v1.043c0 .048-.039.088-.088.088h-.543a.117.117 0 0 0-.117.117v.973c0 .065.053.117.117.117h.543c.049 0 .088.04.088.088v2.296c0 1.504.697 1.79 1.528 1.79.46 0 .789-.057 1.014-.143a.115.115 0 0 0 .073-.109v-.99a.117.117 0 0 0-.147-.112 2.052 2.052 0 0 1-.56.065c-.37 0-.442-.265-.442-.511v-2.286c0-.048.04-.088.089-.088h.932a.117.117 0 0 0 .117-.117v-.973a.117.117 0 0 0-.117-.117h-.932a.088.088 0 0 1-.089-.088v-1.043a.118.118 0 0 0-.117-.118M42.364 73.258a.117.117 0 0 0-.117.117v5.086c0 .065.053.117.117.117h1.231a.117.117 0 0 0 .118-.117v-5.086a.117.117 0 0 0-.118-.117h-1.23M46.17 75.939c0-.972.707-1.474 1.373-1.474.656 0 1.374.502 1.374 1.474 0 .94-.718 1.442-1.374 1.442-.666 0-1.374-.501-1.374-1.442zm4.162 0c0-1.863-1.579-2.773-2.789-2.773-1.21 0-2.799.91-2.799 2.773 0 1.862 1.59 2.742 2.799 2.742 1.21 0 2.789-.88 2.789-2.742zM55.189 78.578h1.23a.118.118 0 0 0 .118-.117V75.52c0-1.678-1.004-2.343-2.02-2.343-.774 0-1.29.449-1.541.788-.052.07-.16.035-.16-.05v-.539a.117.117 0 0 0-.118-.117h-1.23a.117.117 0 0 0-.118.117v5.086c0 .065.052.117.117.117h1.231a.117.117 0 0 0 .117-.117v-2.9c.113-.37.575-1.106 1.354-1.106.564 0 .902.297.902 1.166v2.84c0 .065.053.117.118.117M60.355 77.381c-.738 0-1.415-.501-1.415-1.473 0-.941.677-1.443 1.415-1.443.718 0 1.343.491 1.343 1.443 0 .982-.625 1.473-1.343 1.473zm1.389 1.197h1.23a.117.117 0 0 0 .119-.117v-5.086a.117.117 0 0 0-.118-.117h-1.231a.117.117 0 0 0-.118.117v.224a.087.087 0 0 1-.148.064 1.939 1.939 0 0 0-1.328-.497c-1.22 0-2.635.91-2.635 2.742 0 1.893 1.415 2.773 2.635 2.773.652 0 1.104-.27 1.324-.505a.088.088 0 0 1 .152.059v.226c0 .065.053.117.118.117zM65.827 72.123a.117.117 0 0 0-.116-.114h-1.23a.118.118 0 0 0-.118.118v6.334c0 .065.052.117.117.117h1.231c.063 0 .113-.05.116-.113l.002-.004v-6.334l-.002-.004M42.98 70.942a.805.805 0 1 0-.002 1.611.805.805 0 0 0 .002-1.61M2.21 70.942a.805.805 0 1 0-.001 1.611.805.805 0 0 0 .002-1.61M18.345 3.401c-.002.003-.003.004-.004.002.003 0 .002-.006.004-.002"/>
        <path fill="#1A1919" d="M3.766 19.37c-.19-.444-.352-.9-.482-1.33a5.684 5.684 0 0 1-.092-.343l-.022-.096v-.004l.002-.002.025-.014c.052-.032.1-.067.088-.193a.138.138 0 0 1 .06-.125c.198-.117.416-.178.663-.166.039.002.082.005.11.049.069.103.148.1.238.114.097.024.185.058.251.157.052.08.13.13.206.166.137.075.286.138.441.197.142.054.289.105.442.16.01.004.016.015.014.028-.014.149-.016.156.053.201.15.106.279.236.462.308.126.053.215.17.313.266.072.074.125.169.2.24l.553.525c.044.042.096.107.151.1.17-.019.219.091.254.203.067.214.219.344.388.468.114.085.233.179.304.3.102.174.23.323.364.471.87.96 1.768 1.921 2.63 2.92.222.258.397.557.62.815l1.031 1.18a75.138 75.138 0 0 0 2.011 2.207c.059.061.11.137.184.173.223.109.355.299.495.487a.96.96 0 0 0 .254.258c.24.152.423.364.64.538.038.03.066.07.081.117.038.114.128.182.205.261.426.434.917.792 1.403 1.151.097.074.19.142.224.276.016.06.075.106.123.148l.568.492a74.211 74.211 0 0 0 1.855 1.533l.52.411c.132.103.274.149.406.25.092.073.176.198.27.267.362.267.73.522 1.102.773a10.87 10.87 0 0 0 1.575.886c.326.146.652.294 1.014.354.12.02.25.021.377.004a.191.191 0 0 0 .113-.06c.01-.009.02-.016.026-.027.006-.009.01-.02.014-.029.005-.013.012-.025.014-.04a.233.233 0 0 0 .003-.11.843.843 0 0 0-.107-.269c-.038-.056-.08-.107-.12-.163a4.003 4.003 0 0 0-.233-.318l-.009-.012c-.004-.005-.01-.01-.013-.015-.047-.056-.094-.115-.142-.17-.31-.374-.64-.723-.981-1.063-.257-.249-.505-.508-.759-.761-.065-.068-.176-.118-.244-.184-.095-.094-.144-.204-.237-.3l-.371-.382c-.447-.463-.882-.94-1.31-1.424l-.396-.458c-.035-.039-.07-.088-.12-.1-.111-.027-.164-.104-.22-.185-.28-.401-.54-.815-.862-1.183-.06-.068-.106-.145-.198-.182a.187.187 0 0 1-.087-.074c-.12-.19-.28-.352-.372-.563a.731.731 0 0 0-.179-.23c-.137-.13-.276-.257-.328-.452-.018-.065-.071-.114-.112-.169-.48-.647-.953-1.3-1.41-1.966l-.714-1.061c-.155-.233-.35-.439-.503-.673-.59-.91-1.115-1.86-1.67-2.79a2.218 2.218 0 0 0-.29-.405.914.914 0 0 1-.168-.317c-.061-.166-.131-.32-.291-.423-.084-.055-.163-.118-.109-.253.018-.045-.024-.102-.049-.147-.107-.19-.211-.383-.324-.57-.046-.077-.115-.14-.164-.215-.066-.101-.15-.198-.175-.314-.035-.17-.134-.303-.207-.452-.034-.067-.041-.067-.17-.073-.012 0-.021-.007-.023-.016a3.137 3.137 0 0 0-.314-.846.586.586 0 0 0-.178-.204.514.514 0 0 1-.2-.245c-.038-.09-.076-.18-.182-.227a.2.2 0 0 1-.092-.1c-.12-.252-.237-.506-.345-.764a.196.196 0 0 1 .007-.16c.057-.1.021-.17-.016-.244l-.61-1.239c-.183-.371-.374-.739-.548-1.114-.12-.26-.22-.529-.337-.789a13.476 13.476 0 0 0-.172-.368 10.63 10.63 0 0 1-.197-.43c-.123-.29-.229-.587-.344-.879l-.272-.638c-.049-.125-.077-.257-.124-.383-.196-.525-.474-1.175-.616-1.7a5.064 5.064 0 0 1-.167-.91 1.72 1.72 0 0 1-.008-.192c-.004-.057.007-.127.006-.118.003 0 .016-.01.005.004.053-.06.114-.098.131-.206.012-.054.054-.087.093-.114a.793.793 0 0 1 .52-.102c.334.051.743.206 1.141.453.215.127.419.292.618.46.052.047.09.112.125.175a.299.299 0 0 0 .157.139.75.75 0 0 1 .196.133c.077.065.14.149.214.218.106.099.214.198.235.365.006.044.04.08.069.112l.39.427c.035.04.091.052.152.046.075-.008.11.035.149.082l.123.147.306.368c.124.15.252.297.327.484.016.04.046.082.086.099.176.072.22.26.379.352.07.043.116.111.142.188.07.215.313.329.287.6-.005.053.062.1.082.141.03.062.062.122.11.17.338.33.595.718.846 1.113.223.351.478.682.72 1.022.03.042.066.086.114.11.145.076.233.198.318.325.073.107.147.212.224.316.081.11.137.233.18.367.042.13.132.238.204.354.012.018.036.038.058.037.162-.011.205.104.268.196l1.038 1.504a.586.586 0 0 1 .103.253c.015.101.051.198.17.231.086.024.12.094.162.157l.656.992c.108.157.233.302.346.456.067.091.142.177.135.312-.002.05.044.097.082.133.103.095.182.205.239.333.021.048.052.105.1.12.121.04.152.144.209.234.244.389.48.783.748 1.155.974 1.355 1.98 2.69 3.022 4.004.067.083.13.168.232.222.053.029.09.084.124.135.83 1.208 1.836 2.28 2.813 3.377.284.315.578.62.889.908.522.484 1.068.947 1.699 1.297.168.096.35.174.534.244.086.033.188.041.288.04a.177.177 0 0 0 .121-.052l.006-.005a.096.096 0 0 0 .01-.011.181.181 0 0 0 .06-.14c0-.137-.02-.277-.057-.406-.113-.39-.297-.748-.483-1.103a19.842 19.842 0 0 0-1.027-1.756l-.828-1.266c-.072-.11-.202-.216-.276-.325-.106-.156-.152-.316-.256-.471l-.412-.622a93.788 93.788 0 0 1-1.459-2.275l-.44-.72c-.039-.06-.077-.135-.137-.167-.132-.07-.192-.186-.252-.308-.303-.608-.585-1.225-.943-1.803-.064-.105-.113-.22-.22-.297a.308.308 0 0 1-.1-.122c-.13-.284-.305-.544-.398-.846a1.24 1.24 0 0 0-.196-.353c-.154-.212-.305-.421-.353-.689-.015-.09-.074-.17-.118-.254a67.135 67.135 0 0 1-1.475-3 65.216 65.216 0 0 1-.712-1.613c-.15-.354-.353-.687-.495-1.044-.552-1.384-.993-2.806-1.383-4.22a4.099 4.099 0 0 0-.217-.634c-.066-.144-.082-.313-.093-.473-.017-.234-.04-.455-.178-.658-.072-.106-.134-.224-.024-.36.037-.045.015-.133.006-.2a12.3 12.3 0 0 1-.073-.815c-.005-.106-.039-.211-.04-.309-.004-.132-.017-.269.044-.343.023-.038.031-.031.037-.03l.01.002c-.002-.006.001-.04 0-.146 0-.012.005-.023.014-.023.275-.014.443.045.692.097.072.012.158.03.252.017.12-.03.227.03.324.088a.672.672 0 0 0 .182.111c.039.015.08.025.131.024.054.001.11.033.151.068.266.222.516.483.749.766.04.05.07.131.059.194-.025.133.04.211.112.294A21.7 21.7 0 0 1 22.14 6.35c.329.456.66.918.972 1.395.214.331.408.676.617 1.012.215.345.447.681.659 1.03.228.376.437.764.662 1.144l.516.829c.097.162.175.336.27.5.405.683.969 1.518 1.377 2.203.523.879.889 1.604 1.416 2.478.088.144.176.283.328.38a.739.739 0 0 1 .21.234c.217.35.441.696.641 1.056.352.64.762 1.244 1.168 1.852.215.327.425.659.633.991.055.088.09.192.12.292a.541.541 0 0 0 .17.261c.086.075.155.172.22.267.086.121.157.252.24.375.121.175.246.345.26.572.005.06.043.12.077.173.15.235.312.463.471.693a.268.268 0 0 0 .19.106c.092.013.135.079.183.152.173.267.354.53.544.788.162.225.328.447.435.707a.312.312 0 0 0 .114.149c.222.13.303.38.51.528a.59.59 0 0 1 .198.27c.114.293.431.473.452.824.004.07.096.136.13.194.048.083.1.166.17.233.237.235.47.476.692.727.223.25.422.517.652.767.2.226.407.445.618.66l.68.617a.62.62 0 0 0 .19.13 1.9 1.9 0 0 1 .572.348c.151.118.295.24.458.347.177.11.33.238.478.389.142.147.331.25.529.343.03.015.077.028.103.017.188-.086.338.022.495.096a4.41 4.41 0 0 0 2.946.206 1.74 1.74 0 0 1 .435-.07c.158 0 .324-.048.426-.194.075-.105.194-.146.297-.209a6.825 6.825 0 0 0 1.48-1.091c.202-.2.386-.419.563-.633.109-.127.207-.26.376-.32.063-.022.114-.104.152-.169.101-.175.214-.33.36-.468.055-.051.116-.12.123-.186.017-.17.135-.264.23-.382.4-.51.791-1.018 1.145-1.545 1.28-1.907 2.505-3.814 4.104-5.235.1-.094.208-.17.277-.298a.53.53 0 0 1 .17-.158c.77-.508 1.555-.948 2.403-1.206.432-.14.824-.21 1.267-.247.44-.028.898-.008 1.357.041.53.067 1.066.155 1.605.253.711.136 1.428.292 2.154.433a5.265 5.265 0 0 0-1.695.951c-.209.17-.397.36-.591.545-.189.19-.349.4-.519.604-1.11 1.454-1.933 3.086-2.304 4.81-.015.07-.031.149-.076.206a.899.899 0 0 0-.151.356 23.13 23.13 0 0 0-.548 2.956c-.117.97-.22 1.9-.352 2.845-.074.516-.117 1.036-.17 1.556-.015.12.002.24-.104.34-.042.04-.046.113-.046.172.002.159-.027.31-.088.457-.022.054-.048.125-.022.175.072.139.03.261 0 .386-.053.21-.12.416-.165.627-.084.443-.191.877-.292 1.315-.02.083-.03.172-.111.23-.11.08-.115.196-.097.308a.656.656 0 0 1-.024.307c-.19.664-.425 1.31-.66 1.955-.045.117-.068.253-.25.28-.024.004-.046.032-.054.054-.052.144-.127.283-.142.435a1.331 1.331 0 0 1-.114.447c-.068.128-.132.258-.195.388-.073.155-.15.306-.297.413a.377.377 0 0 0-.107.143c-.222.41-.477.799-.684 1.215-.133.225-.266.45-.411.666-.143.217-.3.426-.5.602a.64.64 0 0 0-.126.187c-.024.046-.1.096-.095.155.019.304-.239.442-.343.667a.384.384 0 0 1-.176.2c-.186.093-.252.3-.453.369-.046.015-.082.061-.104.106-.097.207-.272.347-.43.502-.184.175-.37.35-.548.532-.05.05-.1.088-.183.069-.07-.017-.136-.012-.182.026l-.515.42c-.039.033-.082.07-.096.12-.049.191-.19.286-.335.378-.1.066-.19.146-.29.21-.078.05-.16.1-.25.126a.355.355 0 0 0-.205.141.837.837 0 0 1-.174.19c-.25.196-.524.353-.804.498-.52.274-1.031.558-1.56.812-.292.154-.598.285-.902.415a.5.5 0 0 1-.255.03c-.15-.032-.274.009-.401.054a18.29 18.29 0 0 0-.548.205 4.17 4.17 0 0 1-.522.184c-.35.106-.702.212-1.097.315-.311.072-.674.104-1.03.154l-.532.07-.504.036c-.151.014-.301.05-.453.062a8.223 8.223 0 0 1-.786.03l-1.07.041c-.331-.006-.663-.051-.994-.065a13.75 13.75 0 0 0-.486-.013c-.161-.01-.324-.024-.485-.041-.467-.056-.933-.109-1.396-.2-.516-.088-1.034-.166-1.546-.286-.093-.02-.18-.039-.275.052a.228.228 0 0 1-.175.053c-.319-.038-.632-.111-.947-.18a.234.234 0 0 1-.135-.075c-.08-.106-.19-.124-.301-.143a.56.56 0 0 1-.324-.158.67.67 0 0 0-.272-.152c-.329-.109-.673-.145-1.025-.157-.011 0-.02-.01-.023-.022-.036-.144-.038-.152-.12-.175-.184-.053-.355-.135-.556-.139-.136-.002-.265-.077-.393-.129-.096-.037-.182-.105-.278-.14-.236-.091-.475-.173-.714-.255-.056-.019-.13-.054-.176-.026-.141.087-.234.01-.315-.073-.156-.158-.352-.205-.558-.24-.14-.024-.287-.05-.406-.124a2.724 2.724 0 0 0-.54-.239c-1.219-.438-2.427-.747-3.624-1.16-.308-.107-.597-.27-.904-.378l-1.406-.501c-.885-.321-1.767-.654-2.643-.996-.074-.029-.147-.073-.225-.074-.234-.002-.422-.113-.613-.226a.888.888 0 0 0-.314-.13c-.265-.039-.5-.163-.752-.237a.226.226 0 0 1-.111-.074c-.073-.088-.176-.113-.27-.158-.518-.243-1.07-.396-1.614-.572-.109-.036-.212-.07-.281-.182-.031-.051-.097-.074-.153-.099l-.65-.28c-.688-.31-1.381-.615-2.056-.944l-.561-.267c-.141-.066-.278-.085-.418-.154-.098-.05-.195-.152-.293-.2-.38-.178-.75-.362-1.119-.55l-.745-.362c-.24-.122-.517-.216-.749-.337a9.316 9.316 0 0 0-.883-.366 1.442 1.442 0 0 0-.318-.056.977.977 0 0 0 .237-.189l.214-.22c.078-.062.141-.13.212-.183.258-.205.499-.298.775-.358.275-.059.602-.074.957-.052.42.024.874.089 1.339.164 1.624.276 3.277.898 5.007 1.233.072.015.15.03.208.074.108.086.233.116.358.15.986.263 1.95.516 2.994.716 1.066.195 2.146.255 3.208.188a8.04 8.04 0 0 0 .87-.1c.145-.018.287-.051.43-.077l.572-.118c.222-.05.392-.112.681-.091a.928.928 0 0 0 .355-.068c.287-.09.532-.178.868-.233.11-.025.22-.074.235-.124.007-.071.086-.118.123-.168.034-.052.087-.097.136-.144.049-.04.063-.076.095-.114a.704.704 0 0 0 .075-.11.702.702 0 0 0 .052-.107c0-.05-.018-.082-.029-.124a7.574 7.574 0 0 0-.117-.339l-.032-.084c-.022-.032-.08-.079-.118-.117l-.257-.241-.752-.432c-.134-.081-.277-.154-.337-.271-.086-.161-.307-.264-.502-.323-.088-.025-.196-.07-.248-.091a.768.768 0 0 1-.142-.075 44.596 44.596 0 0 1-1.789-1.223c-.107-.078-.242-.133-.225-.323.002-.025-.021-.055-.042-.068-.136-.089-.26-.201-.41-.257-.158-.058-.3-.131-.427-.233-.119-.097-.24-.193-.362-.286-.144-.11-.284-.221-.362-.4a.415.415 0 0 0-.123-.144c-.385-.313-.753-.646-1.146-.95-.443-.338-.874-.692-1.226-1.134a.756.756 0 0 0-.186-.153c-.048-.03-.094-.115-.156-.117-.325-.009-.433-.31-.676-.427a.416.416 0 0 1-.206-.194c-.091-.2-.306-.283-.372-.5-.015-.05-.062-.09-.108-.116-.21-.12-.37-.291-.535-.46l-.565-.587c-.052-.053-.099-.1-.083-.189.013-.071.004-.14-.04-.188l-.478-.526c-.036-.039-.078-.083-.13-.095-.2-.048-.31-.19-.427-.329-.083-.096-.176-.182-.256-.282a.997.997 0 0 1-.16-.25.395.395 0 0 0-.17-.202.894.894 0 0 1-.216-.165 15.614 15.614 0 0 1-.64-.777c-.379-.498-.741-1.006-1.149-1.482a12 12 0 0 1-.637-.847.526.526 0 0 1-.108-.249c-.014-.16-.094-.275-.178-.393-.508-.71-.954-1.247-1.434-1.977-.374-.57-.776-1.334-1.123-1.919-.082-.139-.185-.266-.264-.407l-.396-.737c-.184-.33-.383-.65-.556-.984-.163-.31-.298-.632-.45-.944-.07-.147-.144-.292-.217-.437a9.185 9.185 0 0 1-.223-.472zm.386 4.169c.194.38.407.75.463 1.197.01.08.07.151.124.213.18.204.354.41.501.637.307.473.561.974.838 1.464.063.116.215.262.327.336.127.084.2.209.284.329.063.092.117.19.183.28a58.316 58.316 0 0 0 1.527 1.991c.488.61.989 1.209 1.498 1.8.328.381.606.8.866 1.233.117.194.249.371.4.536.333.37.671.737 1.015 1.098.184.194.39.373.578.563.202.208.384.427.59.63 2.252 2.236 4.705 4.283 7.356 6.054.169.111.353.198.522.309l.063.042.014.013.025.028c.016.018.03.035.05.047l.052.032.04.02c-.001.006-.02.01-.03.014l-.02.006c-.011.002-.003.002-.05.01l-.053.009-.236.032a8.726 8.726 0 0 1-.504.059c-1.356.132-2.685.08-4.007-.24-1.229-.272-2.448-.62-3.678-.98-1.232-.356-2.469-.738-3.787-1.017a10.295 10.295 0 0 0-1.605-.218c-.558-.021-1.156.002-1.772.228-.688.222-1.35.835-1.518 1.505-.072.224-.08.451-.074.664a.81.81 0 0 0 .089.29c.033.065.085.1.144.112a.19.19 0 0 0-.073.158.734.734 0 0 0 .061.276c.09.186.19.402.32.55.136.169.281.333.434.493.152.16.316.286.481.424.33.278.682.51 1.038.733.425.28.868.508 1.311.74.174.094.422.162.599.242.249.116.424.254.672.374.121.058.296.097.42.15.668.302 1.282.633 1.958.915.081.035.17.09.253.074.16-.03.284.034.415.087.19.077.379.158.574.22.305.096.605.221.938.214.198-.003.263.04.423.145.067.044.246.091.316.13.32.18.64.36.915.618a.365.365 0 0 0 .263.098c.163-.004.322.034.478.065.524.161.913.285 1.081.455.028.028.1.09.11.097.228.15.21.12.472.176.04.008.177.082.282.048.115-.045.16-.027.217-.009.246.078.3.144.545.225.064.022.11.015.195.12.025.03.046.094.077.136.021.029.056.035.063.038l.358.128c.43.146.86.292 1.293.426.596.18 1.197.345 1.796.515.743.203 1.463.424 2.181.65.57.177 1.14.349 1.708.54l1.1.387 1.109.366c.18.06.346.147.51.242.11.063.225.115.345.15.11.034.23.04.345.058.133.022.27.03.362.162.055.076.142.075.22.092.248.051.499.089.743.154.348.099.702.184 1.056.267.355.08.706.177 1.07.22.286.039.575.048.863.051.178.003.344.038.515.08.143.037.287.074.435.096.298.044.598.084.899.112.263.014.522.044.778.12.063.02.13.02.193.003.47-.117.948-.132 1.421-.15.318-.016.635-.01.953-.034.418-.018.836-.048 1.263.09.075.019.164-.01.241-.036.255-.09.51-.17.774-.216.551-.079 1.096-.182 1.65-.274.128-.022.316-.112.422-.19.12-.083.254-.133.393-.176.104-.036.212-.061.316-.1.386-.152.785-.27 1.157-.452l1.12-.537c.177-.078.345-.172.509-.274l.496-.296c.326-.204.673-.378.98-.607a7.88 7.88 0 0 1 1.292-.731c.208-.088.38-.225.553-.362.377-.317.775-.61 1.123-.964.193-.183.37-.387.562-.57.214-.191.406-.398.604-.606a19.19 19.19 0 0 0 2.729-3.83 25.105 25.105 0 0 0 1.814-4.297c.058-.188.088-.383.146-.57.062-.201.153-.394.203-.598.415-1.467.698-2.956.942-4.442.125-.744.218-1.488.317-2.232.086-.745.17-1.497.266-2.19.35-2.343 1.106-4.652 2.42-6.501.516-.714 1.1-1.347 1.748-1.896l.274-.234c.061-.042.121-.087.182-.131.036-.027.072-.051.107-.078.188-.16.395-.275.596-.429.136-.113.282-.198.426-.311a.868.868 0 0 0 .183-.204.232.232 0 0 0 .042-.172c.025-.051.023-.114-.011-.18a.988.988 0 0 0-.19-.258 4.778 4.778 0 0 0-.524-.43 8.656 8.656 0 0 0-1.768-.91 11.633 11.633 0 0 0-3.558-.785c-.797-.043-1.662.01-2.477.249a8.636 8.636 0 0 0-2.241.996c-1.384.862-2.476 2.025-3.425 3.22-1.144 1.438-2.087 2.965-3.073 4.402-.492.717-.994 1.415-1.54 2.033-.542.621-1.139 1.157-1.778 1.483-.175.083-.346.197-.537.251-.175.055-.356.065-.528.087-1.337.21-2.793-.851-4.025-1.974-1.248-1.157-2.363-2.523-3.417-3.93-.197-.254-.398-.5-.587-.761-.173-.243-.332-.501-.503-.746l-.943-1.38a4.718 4.718 0 0 0-.46-.593 9 9 0 0 1-1.037-1.34c-.466-.748-.922-1.502-1.373-2.26l-1.444-2.445c-.064-.109-.139-.21-.206-.318-.087-.14-.178-.277-.214-.441a1.572 1.572 0 0 0-.203-.487c-.365-.518-.738-1.03-1.06-1.58a6.264 6.264 0 0 1-.391-.827.576.576 0 0 0-.146-.237c-.39-.31-.644-.724-.907-1.13-.2-.309-.389-.625-.57-.945-.274-.477-.566-.952-.718-1.492a.46.46 0 0 0-.111-.194 4.545 4.545 0 0 1-.556-.731c-.19-.298-.385-.594-.591-.883a4.634 4.634 0 0 0-.332-.407 2.61 2.61 0 0 1-.354-.506 6.88 6.88 0 0 0-.533-.88 11.738 11.738 0 0 0-1.717-1.882c-.036-.032-.07-.065-.107-.097-.247-.212-.5-.435-.797-.628-.098-.059-.193-.136-.311-.131-.214.022-.366-.091-.565-.157a1.898 1.898 0 0 0-.53-.141 1.55 1.55 0 0 0-.605.082 2.46 2.46 0 0 0-.412.175c-.066.031-.134.06-.192.1l-.219.124c-.338.176-.53.57-.605.897a3.61 3.61 0 0 0-.088.815c-.003.447.042.868.098 1.283l.025.183c.113.738.255 1.46.427 2.172.217.901.475 1.787.752 2.665.226.714.46 1.426.72 2.127.188.512.4 1.014.612 1.516l.184.417c.004.009.016.05.05.074.048.035.117.059.15.088.123.096.123.15.155.224.122.283.2.346.32.63.03.067.055.117.028.253-.018.123.08.282.096.327.102.304.07.284.263.543.01.012.086.093.12.124.208.188.404.635.67 1.234.062.179.132.36.16.55a.515.515 0 0 0 .155.298c.322.304.57.663.824 1.02.055.078.142.28.202.355.143.176.203.247.24.476.064.383.258.719.426 1.062.033.068.071.134.108.2a191.976 191.976 0 0 1-3.962-5.528c-.1-.145-.222-.276-.322-.42-.094-.135-.166-.284-.26-.419-1.48-2.125-2.945-4.27-4.566-6.341-.148-.189-.314-.36-.465-.547-.142-.171-.267-.362-.414-.531-.062-.074-.13-.145-.193-.218-.21-.243-.422-.486-.642-.725a2.73 2.73 0 0 0-.431-.374 14.769 14.769 0 0 1-1.044-.782 6.875 6.875 0 0 0-.852-.619 3.747 3.747 0 0 0-1.048-.458c-.419-.111-.929-.126-1.389.045a2.399 2.399 0 0 0-.622.332c-.09.068-.183.137-.258.213-.048.05-.121.113-.17.171-.053.06-.083.134-.133.196-.043.071-.06.156-.09.234-.018.082-.03.166-.041.249-.02.243-.002.346-.04.505-.03.126-.04.331-.008.446.131.503.31.946.448 1.403.068.22.107.444.143.67.011.067.025.145.073.193.262.272.393.603.537.926.11.247.21.495.306.747.144.373.305.744.338 1.157a.276.276 0 0 0 .06.15c.102.13.182.27.255.415.027.053.057.105.081.16.105.232.216.462.332.688.059.111.128.217.2.32.083.124.15.252.193.397.07.235.145.467.247.689.257.56.567 1.095.856 1.64.1.189.178.39.27.584.028.062.044.134.12.164.129.051.157.166.198.273.036.094.06.193.107.28.05.092.114.18.187.26.112.119.214.242.291.385l.977 1.744.748 1.37.964 1.727c.265.466.524.937.801 1.397.2.337.417.663.629.993.067.1.107.16.184.272.003.006.016.034.045.045.043.016.102.02.132.035.108.046.112.087.143.136.121.186.191.217.31.405.027.045.052.077.037.185-.008.096.086.194.101.226.104.207.075.199.252.355.008.007.076.053.106.07.184.099.372.398.626.798.061.123.13.247.162.385.02.083.07.151.145.195.282.167.504.393.733.613a.615.615 0 0 1 .053.065 4.214 4.214 0 0 0-.227-.185c-.26-.197-.5-.423-.824-.533-.194-.066-.236-.136-.348-.296-.047-.068-.198-.181-.25-.246-.235-.29-.458-.592-.608-.944a.377.377 0 0 0-.201-.2c-.153-.065-.283-.168-.414-.263-.415-.37-.714-.667-.786-.9a1.604 1.604 0 0 0-.054-.14c-.136-.243-.133-.208-.346-.38-.032-.026-.121-.16-.233-.178-.128-.014-.158-.05-.202-.095-.185-.189-.2-.278-.38-.472-.048-.05-.093-.067-.116-.204-.007-.039.006-.107 0-.16-.005-.036-.033-.06-.039-.066l-.256-.293-.935-1.04-1.325-1.403a139.325 139.325 0 0 0-1.643-1.729c-.44-.452-.89-.898-1.347-1.343-.585-.57-1.18-1.14-1.865-1.644-.173-.118-.307-.27-.464-.417-.024-.023-.05-.045-.076-.068a1.19 1.19 0 0 0-.262-.191c-.12-.063-.249-.102-.38-.145-.155-.046-.305-.082-.415-.23-.067-.087-.175-.096-.272-.121-.152-.042-.325-.052-.485-.075-.167-.01-.34-.01-.51-.012-.5.01-1.007.174-1.42.426-.096.068-.217.112-.34.245l-.353.35a.79.79 0 0 0-.198.437c-.03.161-.018.33-.002.497.048.3.091.437.151.592.058.155.124.298.195.438.086.174.143.345.183.527.032.155.071.306.124.453.11.296.232.587.363.871.113.248.213.498.27.767a.34.34 0 0 0 .095.174c.084.084.16.173.23.265.231.297.407.626.592.946.163.282.321.564.47.853z"/>
    </g>
</svg>
